<svg xmlns="http://www.w3.org/2000/svg" xmlns:xlink="http://www.w3.org/1999/xlink" width="500" zoomAndPan="magnify" viewBox="0 0 375 374.999991" height="500" preserveAspectRatio="xMidYMid meet" version="1.0"><defs><filter x="0%" y="0%" width="100%" height="100%" id="52ec36cfef"><feColorMatrix values="0 0 0 0 1 0 0 0 0 1 0 0 0 0 1 0 0 0 1 0" color-interpolation-filters="sRGB"/></filter><g/><linearGradient x1="0" gradientTransform="matrix(0.75, 0, 0, 0.75, 0.0000045, 0)" y1="250" x2="499.999979" gradientUnits="userSpaceOnUse" y2="250" id="9f79a54154"><stop stop-opacity="1" stop-color="rgb(0%, 0%, 0%)" offset="0"/><stop stop-opacity="1" stop-color="rgb(0.0808716%, 0.0778198%, 0.312805%)" offset="0.00390625"/><stop stop-opacity="1" stop-color="rgb(0.161743%, 0.15564%, 0.627136%)" offset="0.0078125"/><stop stop-opacity="1" stop-color="rgb(0.242615%, 0.233459%, 0.941467%)" offset="0.0117187"/><stop stop-opacity="1" stop-color="rgb(0.323486%, 0.311279%, 1.255798%)" offset="0.015625"/><stop stop-opacity="1" stop-color="rgb(0.404358%, 0.389099%, 1.568604%)" offset="0.0195312"/><stop stop-opacity="1" stop-color="rgb(0.486755%, 0.468445%, 1.882935%)" offset="0.0234375"/><stop stop-opacity="1" stop-color="rgb(0.567627%, 0.546265%, 2.197266%)" offset="0.0273438"/><stop stop-opacity="1" stop-color="rgb(0.648499%, 0.624084%, 2.511597%)" offset="0.03125"/><stop stop-opacity="1" stop-color="rgb(0.72937%, 0.701904%, 2.824402%)" offset="0.0351562"/><stop stop-opacity="1" stop-color="rgb(0.810242%, 0.779724%, 3.138733%)" offset="0.0390625"/><stop stop-opacity="1" stop-color="rgb(0.891113%, 0.857544%, 3.453064%)" offset="0.0429687"/><stop stop-opacity="1" stop-color="rgb(0.973511%, 0.93689%, 3.767395%)" offset="0.046875"/><stop stop-opacity="1" stop-color="rgb(1.054382%, 1.014709%, 4.081726%)" offset="0.0507812"/><stop stop-opacity="1" stop-color="rgb(1.135254%, 1.092529%, 4.396057%)" offset="0.0546875"/><stop stop-opacity="1" stop-color="rgb(1.216125%, 1.170349%, 4.708862%)" offset="0.0585938"/><stop stop-opacity="1" stop-color="rgb(1.298523%, 1.249695%, 5.023193%)" offset="0.0625"/><stop stop-opacity="1" stop-color="rgb(1.379395%, 1.327515%, 5.337524%)" offset="0.0664062"/><stop stop-opacity="1" stop-color="rgb(1.460266%, 1.405334%, 5.651855%)" offset="0.0703125"/><stop stop-opacity="1" stop-color="rgb(1.541138%, 1.483154%, 5.964661%)" offset="0.0742187"/><stop stop-opacity="1" stop-color="rgb(1.622009%, 1.560974%, 6.278992%)" offset="0.078125"/><stop stop-opacity="1" stop-color="rgb(1.702881%, 1.638794%, 6.593323%)" offset="0.0820312"/><stop stop-opacity="1" stop-color="rgb(1.785278%, 1.71814%, 6.907654%)" offset="0.0859375"/><stop stop-opacity="1" stop-color="rgb(1.86615%, 1.795959%, 7.221985%)" offset="0.0898437"/><stop stop-opacity="1" stop-color="rgb(1.947021%, 1.873779%, 7.536316%)" offset="0.09375"/><stop stop-opacity="1" stop-color="rgb(2.027893%, 1.951599%, 7.849121%)" offset="0.0976562"/><stop stop-opacity="1" stop-color="rgb(2.110291%, 2.030945%, 8.163452%)" offset="0.101562"/><stop stop-opacity="1" stop-color="rgb(2.191162%, 2.108765%, 8.477783%)" offset="0.105469"/><stop stop-opacity="1" stop-color="rgb(2.272034%, 2.186584%, 8.792114%)" offset="0.109375"/><stop stop-opacity="1" stop-color="rgb(2.352905%, 2.264404%, 9.104919%)" offset="0.113281"/><stop stop-opacity="1" stop-color="rgb(2.433777%, 2.342224%, 9.41925%)" offset="0.117188"/><stop stop-opacity="1" stop-color="rgb(2.514648%, 2.420044%, 9.733582%)" offset="0.121094"/><stop stop-opacity="1" stop-color="rgb(2.597046%, 2.49939%, 10.047913%)" offset="0.125"/><stop stop-opacity="1" stop-color="rgb(2.677917%, 2.577209%, 10.362244%)" offset="0.128906"/><stop stop-opacity="1" stop-color="rgb(2.758789%, 2.655029%, 10.676575%)" offset="0.132812"/><stop stop-opacity="1" stop-color="rgb(2.839661%, 2.732849%, 10.98938%)" offset="0.136719"/><stop stop-opacity="1" stop-color="rgb(2.922058%, 2.812195%, 11.303711%)" offset="0.140625"/><stop stop-opacity="1" stop-color="rgb(3.00293%, 2.890015%, 11.618042%)" offset="0.144531"/><stop stop-opacity="1" stop-color="rgb(3.083801%, 2.967834%, 11.932373%)" offset="0.148437"/><stop stop-opacity="1" stop-color="rgb(3.164673%, 3.045654%, 12.245178%)" offset="0.152344"/><stop stop-opacity="1" stop-color="rgb(3.245544%, 3.123474%, 12.559509%)" offset="0.15625"/><stop stop-opacity="1" stop-color="rgb(3.326416%, 3.201294%, 12.87384%)" offset="0.160156"/><stop stop-opacity="1" stop-color="rgb(3.408813%, 3.28064%, 13.188171%)" offset="0.164062"/><stop stop-opacity="1" stop-color="rgb(3.489685%, 3.358459%, 13.502502%)" offset="0.167969"/><stop stop-opacity="1" stop-color="rgb(3.570557%, 3.436279%, 13.816833%)" offset="0.171875"/><stop stop-opacity="1" stop-color="rgb(3.651428%, 3.514099%, 14.129639%)" offset="0.175781"/><stop stop-opacity="1" stop-color="rgb(3.733826%, 3.593445%, 14.44397%)" offset="0.179687"/><stop stop-opacity="1" stop-color="rgb(3.814697%, 3.671265%, 14.758301%)" offset="0.183594"/><stop stop-opacity="1" stop-color="rgb(3.895569%, 3.749084%, 15.072632%)" offset="0.1875"/><stop stop-opacity="1" stop-color="rgb(3.97644%, 3.826904%, 15.385437%)" offset="0.191406"/><stop stop-opacity="1" stop-color="rgb(4.057312%, 3.904724%, 15.699768%)" offset="0.195312"/><stop stop-opacity="1" stop-color="rgb(4.138184%, 3.982544%, 16.014099%)" offset="0.199219"/><stop stop-opacity="1" stop-color="rgb(4.220581%, 4.06189%, 16.32843%)" offset="0.203125"/><stop stop-opacity="1" stop-color="rgb(4.301453%, 4.139709%, 16.642761%)" offset="0.207031"/><stop stop-opacity="1" stop-color="rgb(4.382324%, 4.217529%, 16.957092%)" offset="0.210938"/><stop stop-opacity="1" stop-color="rgb(4.463196%, 4.295349%, 17.269897%)" offset="0.214844"/><stop stop-opacity="1" stop-color="rgb(4.545593%, 4.374695%, 17.584229%)" offset="0.21875"/><stop stop-opacity="1" stop-color="rgb(4.626465%, 4.452515%, 17.89856%)" offset="0.222656"/><stop stop-opacity="1" stop-color="rgb(4.707336%, 4.530334%, 18.212891%)" offset="0.226562"/><stop stop-opacity="1" stop-color="rgb(4.788208%, 4.608154%, 18.525696%)" offset="0.230469"/><stop stop-opacity="1" stop-color="rgb(4.86908%, 4.685974%, 18.840027%)" offset="0.234375"/><stop stop-opacity="1" stop-color="rgb(4.949951%, 4.763794%, 19.154358%)" offset="0.238281"/><stop stop-opacity="1" stop-color="rgb(5.032349%, 4.84314%, 19.468689%)" offset="0.242188"/><stop stop-opacity="1" stop-color="rgb(5.11322%, 4.920959%, 19.78302%)" offset="0.246094"/><stop stop-opacity="1" stop-color="rgb(5.194092%, 4.998779%, 20.097351%)" offset="0.25"/><stop stop-opacity="1" stop-color="rgb(5.274963%, 5.076599%, 20.410156%)" offset="0.253906"/><stop stop-opacity="1" stop-color="rgb(5.355835%, 5.155945%, 20.724487%)" offset="0.257812"/><stop stop-opacity="1" stop-color="rgb(5.436707%, 5.233765%, 21.038818%)" offset="0.261719"/><stop stop-opacity="1" stop-color="rgb(5.519104%, 5.311584%, 21.353149%)" offset="0.265625"/><stop stop-opacity="1" stop-color="rgb(5.599976%, 5.389404%, 21.665955%)" offset="0.269531"/><stop stop-opacity="1" stop-color="rgb(5.680847%, 5.467224%, 21.980286%)" offset="0.273437"/><stop stop-opacity="1" stop-color="rgb(5.761719%, 5.545044%, 22.294617%)" offset="0.277344"/><stop stop-opacity="1" stop-color="rgb(5.844116%, 5.62439%, 22.608948%)" offset="0.28125"/><stop stop-opacity="1" stop-color="rgb(5.924988%, 5.702209%, 22.923279%)" offset="0.285156"/><stop stop-opacity="1" stop-color="rgb(6.005859%, 5.780029%, 23.23761%)" offset="0.289062"/><stop stop-opacity="1" stop-color="rgb(6.086731%, 5.857849%, 23.550415%)" offset="0.292969"/><stop stop-opacity="1" stop-color="rgb(6.167603%, 5.937195%, 23.864746%)" offset="0.296875"/><stop stop-opacity="1" stop-color="rgb(6.248474%, 6.015015%, 24.179077%)" offset="0.300781"/><stop stop-opacity="1" stop-color="rgb(6.330872%, 6.092834%, 24.493408%)" offset="0.304687"/><stop stop-opacity="1" stop-color="rgb(6.411743%, 6.170654%, 24.806213%)" offset="0.308594"/><stop stop-opacity="1" stop-color="rgb(6.492615%, 6.248474%, 25.120544%)" offset="0.3125"/><stop stop-opacity="1" stop-color="rgb(6.573486%, 6.326294%, 25.434875%)" offset="0.316406"/><stop stop-opacity="1" stop-color="rgb(6.655884%, 6.40564%, 25.749207%)" offset="0.320312"/><stop stop-opacity="1" stop-color="rgb(6.736755%, 6.483459%, 26.063538%)" offset="0.324219"/><stop stop-opacity="1" stop-color="rgb(6.817627%, 6.561279%, 26.377869%)" offset="0.328125"/><stop stop-opacity="1" stop-color="rgb(6.898499%, 6.639099%, 26.690674%)" offset="0.332031"/><stop stop-opacity="1" stop-color="rgb(6.97937%, 6.718445%, 27.005005%)" offset="0.335937"/><stop stop-opacity="1" stop-color="rgb(7.060242%, 6.796265%, 27.319336%)" offset="0.339844"/><stop stop-opacity="1" stop-color="rgb(7.142639%, 6.874084%, 27.633667%)" offset="0.34375"/><stop stop-opacity="1" stop-color="rgb(7.223511%, 6.951904%, 27.946472%)" offset="0.347656"/><stop stop-opacity="1" stop-color="rgb(7.304382%, 7.029724%, 28.260803%)" offset="0.351562"/><stop stop-opacity="1" stop-color="rgb(7.385254%, 7.107544%, 28.575134%)" offset="0.355469"/><stop stop-opacity="1" stop-color="rgb(7.467651%, 7.18689%, 28.889465%)" offset="0.359375"/><stop stop-opacity="1" stop-color="rgb(7.548523%, 7.264709%, 29.203796%)" offset="0.363281"/><stop stop-opacity="1" stop-color="rgb(7.629395%, 7.342529%, 29.518127%)" offset="0.367187"/><stop stop-opacity="1" stop-color="rgb(7.710266%, 7.420349%, 29.830933%)" offset="0.371094"/><stop stop-opacity="1" stop-color="rgb(7.791138%, 7.499695%, 30.145264%)" offset="0.375"/><stop stop-opacity="1" stop-color="rgb(7.872009%, 7.577515%, 30.459595%)" offset="0.378906"/><stop stop-opacity="1" stop-color="rgb(7.954407%, 7.655334%, 30.773926%)" offset="0.382812"/><stop stop-opacity="1" stop-color="rgb(8.035278%, 7.733154%, 31.086731%)" offset="0.386719"/><stop stop-opacity="1" stop-color="rgb(8.11615%, 7.810974%, 31.401062%)" offset="0.390625"/><stop stop-opacity="1" stop-color="rgb(8.197021%, 7.888794%, 31.715393%)" offset="0.394531"/><stop stop-opacity="1" stop-color="rgb(8.279419%, 7.96814%, 32.029724%)" offset="0.398438"/><stop stop-opacity="1" stop-color="rgb(8.360291%, 8.045959%, 32.344055%)" offset="0.402344"/><stop stop-opacity="1" stop-color="rgb(8.441162%, 8.123779%, 32.658386%)" offset="0.40625"/><stop stop-opacity="1" stop-color="rgb(8.522034%, 8.201599%, 32.971191%)" offset="0.410156"/><stop stop-opacity="1" stop-color="rgb(8.602905%, 8.280945%, 33.285522%)" offset="0.414062"/><stop stop-opacity="1" stop-color="rgb(8.683777%, 8.358765%, 33.599854%)" offset="0.417969"/><stop stop-opacity="1" stop-color="rgb(8.766174%, 8.436584%, 33.914185%)" offset="0.421875"/><stop stop-opacity="1" stop-color="rgb(8.847046%, 8.514404%, 34.22699%)" offset="0.425781"/><stop stop-opacity="1" stop-color="rgb(8.927917%, 8.592224%, 34.541321%)" offset="0.429688"/><stop stop-opacity="1" stop-color="rgb(9.008789%, 8.670044%, 34.855652%)" offset="0.433594"/><stop stop-opacity="1" stop-color="rgb(9.091187%, 8.74939%, 35.169983%)" offset="0.4375"/><stop stop-opacity="1" stop-color="rgb(9.172058%, 8.827209%, 35.484314%)" offset="0.441406"/><stop stop-opacity="1" stop-color="rgb(9.25293%, 8.905029%, 35.798645%)" offset="0.445312"/><stop stop-opacity="1" stop-color="rgb(9.333801%, 8.982849%, 36.11145%)" offset="0.449219"/><stop stop-opacity="1" stop-color="rgb(9.414673%, 9.062195%, 36.425781%)" offset="0.453125"/><stop stop-opacity="1" stop-color="rgb(9.495544%, 9.140015%, 36.740112%)" offset="0.457031"/><stop stop-opacity="1" stop-color="rgb(9.577942%, 9.217834%, 37.054443%)" offset="0.460938"/><stop stop-opacity="1" stop-color="rgb(9.658813%, 9.295654%, 37.367249%)" offset="0.464844"/><stop stop-opacity="1" stop-color="rgb(9.739685%, 9.373474%, 37.68158%)" offset="0.46875"/><stop stop-opacity="1" stop-color="rgb(9.820557%, 9.451294%, 37.995911%)" offset="0.472656"/><stop stop-opacity="1" stop-color="rgb(9.902954%, 9.53064%, 38.310242%)" offset="0.476562"/><stop stop-opacity="1" stop-color="rgb(9.983826%, 9.608459%, 38.624573%)" offset="0.480469"/><stop stop-opacity="1" stop-color="rgb(10.064697%, 9.686279%, 38.938904%)" offset="0.484375"/><stop stop-opacity="1" stop-color="rgb(10.145569%, 9.764099%, 39.251709%)" offset="0.488281"/><stop stop-opacity="1" stop-color="rgb(10.22644%, 9.843445%, 39.56604%)" offset="0.492188"/><stop stop-opacity="1" stop-color="rgb(10.307312%, 9.921265%, 39.880371%)" offset="0.496094"/><stop stop-opacity="1" stop-color="rgb(10.389709%, 9.999084%, 40.194702%)" offset="0.5"/><stop stop-opacity="1" stop-color="rgb(10.470581%, 10.076904%, 40.507507%)" offset="0.503906"/><stop stop-opacity="1" stop-color="rgb(10.551453%, 10.154724%, 40.821838%)" offset="0.507812"/><stop stop-opacity="1" stop-color="rgb(10.632324%, 10.232544%, 41.136169%)" offset="0.511719"/><stop stop-opacity="1" stop-color="rgb(10.713196%, 10.31189%, 41.4505%)" offset="0.515625"/><stop stop-opacity="1" stop-color="rgb(10.794067%, 10.389709%, 41.763306%)" offset="0.519531"/><stop stop-opacity="1" stop-color="rgb(10.876465%, 10.467529%, 42.077637%)" offset="0.523437"/><stop stop-opacity="1" stop-color="rgb(10.957336%, 10.545349%, 42.391968%)" offset="0.527344"/><stop stop-opacity="1" stop-color="rgb(11.038208%, 10.624695%, 42.706299%)" offset="0.53125"/><stop stop-opacity="1" stop-color="rgb(11.11908%, 10.702515%, 43.02063%)" offset="0.535156"/><stop stop-opacity="1" stop-color="rgb(11.201477%, 10.780334%, 43.334961%)" offset="0.539062"/><stop stop-opacity="1" stop-color="rgb(11.282349%, 10.858154%, 43.647766%)" offset="0.542969"/><stop stop-opacity="1" stop-color="rgb(11.36322%, 10.935974%, 43.962097%)" offset="0.546875"/><stop stop-opacity="1" stop-color="rgb(11.444092%, 11.013794%, 44.276428%)" offset="0.550781"/><stop stop-opacity="1" stop-color="rgb(11.524963%, 11.09314%, 44.590759%)" offset="0.554687"/><stop stop-opacity="1" stop-color="rgb(11.605835%, 11.170959%, 44.903564%)" offset="0.558594"/><stop stop-opacity="1" stop-color="rgb(11.688232%, 11.248779%, 45.217896%)" offset="0.5625"/><stop stop-opacity="1" stop-color="rgb(11.769104%, 11.326599%, 45.532227%)" offset="0.566406"/><stop stop-opacity="1" stop-color="rgb(11.849976%, 11.405945%, 45.846558%)" offset="0.570312"/><stop stop-opacity="1" stop-color="rgb(11.930847%, 11.483765%, 46.160889%)" offset="0.574219"/><stop stop-opacity="1" stop-color="rgb(12.013245%, 11.561584%, 46.47522%)" offset="0.578125"/><stop stop-opacity="1" stop-color="rgb(12.094116%, 11.639404%, 46.788025%)" offset="0.582031"/><stop stop-opacity="1" stop-color="rgb(12.174988%, 11.717224%, 47.102356%)" offset="0.585937"/><stop stop-opacity="1" stop-color="rgb(12.255859%, 11.795044%, 47.416687%)" offset="0.589844"/><stop stop-opacity="1" stop-color="rgb(12.336731%, 11.87439%, 47.731018%)" offset="0.59375"/><stop stop-opacity="1" stop-color="rgb(12.417603%, 11.952209%, 48.043823%)" offset="0.597656"/><stop stop-opacity="1" stop-color="rgb(12.5%, 12.030029%, 48.358154%)" offset="0.601562"/><stop stop-opacity="1" stop-color="rgb(12.580872%, 12.107849%, 48.672485%)" offset="0.605469"/><stop stop-opacity="1" stop-color="rgb(12.661743%, 12.187195%, 48.986816%)" offset="0.609375"/><stop stop-opacity="1" stop-color="rgb(12.742615%, 12.265015%, 49.301147%)" offset="0.613281"/><stop stop-opacity="1" stop-color="rgb(12.825012%, 12.342834%, 49.615479%)" offset="0.617187"/><stop stop-opacity="1" stop-color="rgb(12.905884%, 12.420654%, 49.928284%)" offset="0.621094"/><stop stop-opacity="1" stop-color="rgb(12.986755%, 12.498474%, 50.242615%)" offset="0.625"/><stop stop-opacity="1" stop-color="rgb(13.067627%, 12.576294%, 50.556946%)" offset="0.628906"/><stop stop-opacity="1" stop-color="rgb(13.148499%, 12.65564%, 50.871277%)" offset="0.632812"/><stop stop-opacity="1" stop-color="rgb(13.22937%, 12.733459%, 51.184082%)" offset="0.636719"/><stop stop-opacity="1" stop-color="rgb(13.311768%, 12.811279%, 51.498413%)" offset="0.640625"/><stop stop-opacity="1" stop-color="rgb(13.392639%, 12.889099%, 51.812744%)" offset="0.644531"/><stop stop-opacity="1" stop-color="rgb(13.473511%, 12.968445%, 52.127075%)" offset="0.648437"/><stop stop-opacity="1" stop-color="rgb(13.554382%, 13.046265%, 52.441406%)" offset="0.652344"/><stop stop-opacity="1" stop-color="rgb(13.63678%, 13.124084%, 52.755737%)" offset="0.65625"/><stop stop-opacity="1" stop-color="rgb(13.717651%, 13.201904%, 53.068542%)" offset="0.660156"/><stop stop-opacity="1" stop-color="rgb(13.798523%, 13.279724%, 53.382874%)" offset="0.664062"/><stop stop-opacity="1" stop-color="rgb(13.879395%, 13.357544%, 53.697205%)" offset="0.667969"/><stop stop-opacity="1" stop-color="rgb(13.960266%, 13.43689%, 54.011536%)" offset="0.671875"/><stop stop-opacity="1" stop-color="rgb(14.041138%, 13.514709%, 54.324341%)" offset="0.675781"/><stop stop-opacity="1" stop-color="rgb(14.123535%, 13.592529%, 54.638672%)" offset="0.679687"/><stop stop-opacity="1" stop-color="rgb(14.204407%, 13.670349%, 54.953003%)" offset="0.683594"/><stop stop-opacity="1" stop-color="rgb(14.285278%, 13.749695%, 55.267334%)" offset="0.6875"/><stop stop-opacity="1" stop-color="rgb(14.36615%, 13.827515%, 55.581665%)" offset="0.691406"/><stop stop-opacity="1" stop-color="rgb(14.448547%, 13.905334%, 55.895996%)" offset="0.695312"/><stop stop-opacity="1" stop-color="rgb(14.529419%, 13.983154%, 56.208801%)" offset="0.699219"/><stop stop-opacity="1" stop-color="rgb(14.610291%, 14.060974%, 56.523132%)" offset="0.703125"/><stop stop-opacity="1" stop-color="rgb(14.691162%, 14.138794%, 56.837463%)" offset="0.707031"/><stop stop-opacity="1" stop-color="rgb(14.772034%, 14.21814%, 57.151794%)" offset="0.710937"/><stop stop-opacity="1" stop-color="rgb(14.852905%, 14.295959%, 57.4646%)" offset="0.714844"/><stop stop-opacity="1" stop-color="rgb(14.935303%, 14.373779%, 57.778931%)" offset="0.71875"/><stop stop-opacity="1" stop-color="rgb(15.016174%, 14.451599%, 58.093262%)" offset="0.722656"/><stop stop-opacity="1" stop-color="rgb(15.097046%, 14.530945%, 58.407593%)" offset="0.726562"/><stop stop-opacity="1" stop-color="rgb(15.177917%, 14.608765%, 58.721924%)" offset="0.730469"/><stop stop-opacity="1" stop-color="rgb(15.258789%, 14.686584%, 59.036255%)" offset="0.734375"/><stop stop-opacity="1" stop-color="rgb(15.339661%, 14.764404%, 59.34906%)" offset="0.738281"/><stop stop-opacity="1" stop-color="rgb(15.422058%, 14.842224%, 59.663391%)" offset="0.742187"/><stop stop-opacity="1" stop-color="rgb(15.50293%, 14.920044%, 59.977722%)" offset="0.746094"/><stop stop-opacity="1" stop-color="rgb(15.583801%, 14.99939%, 60.292053%)" offset="0.75"/><stop stop-opacity="1" stop-color="rgb(15.664673%, 15.077209%, 60.604858%)" offset="0.753906"/><stop stop-opacity="1" stop-color="rgb(15.74707%, 15.155029%, 60.919189%)" offset="0.757812"/><stop stop-opacity="1" stop-color="rgb(15.827942%, 15.232849%, 61.233521%)" offset="0.761719"/><stop stop-opacity="1" stop-color="rgb(15.908813%, 15.312195%, 61.547852%)" offset="0.765625"/><stop stop-opacity="1" stop-color="rgb(15.989685%, 15.390015%, 61.862183%)" offset="0.769531"/><stop stop-opacity="1" stop-color="rgb(16.070557%, 15.467834%, 62.176514%)" offset="0.773438"/><stop stop-opacity="1" stop-color="rgb(16.151428%, 15.545654%, 62.489319%)" offset="0.777344"/><stop stop-opacity="1" stop-color="rgb(16.233826%, 15.623474%, 62.80365%)" offset="0.78125"/><stop stop-opacity="1" stop-color="rgb(16.314697%, 15.701294%, 63.117981%)" offset="0.785156"/><stop stop-opacity="1" stop-color="rgb(16.395569%, 15.78064%, 63.432312%)" offset="0.789062"/><stop stop-opacity="1" stop-color="rgb(16.47644%, 15.858459%, 63.745117%)" offset="0.792969"/><stop stop-opacity="1" stop-color="rgb(16.558838%, 15.936279%, 64.059448%)" offset="0.796875"/><stop stop-opacity="1" stop-color="rgb(16.639709%, 16.014099%, 64.373779%)" offset="0.800781"/><stop stop-opacity="1" stop-color="rgb(16.720581%, 16.093445%, 64.68811%)" offset="0.804688"/><stop stop-opacity="1" stop-color="rgb(16.801453%, 16.171265%, 65.002441%)" offset="0.808594"/><stop stop-opacity="1" stop-color="rgb(16.882324%, 16.249084%, 65.316772%)" offset="0.8125"/><stop stop-opacity="1" stop-color="rgb(16.963196%, 16.326904%, 65.629578%)" offset="0.816406"/><stop stop-opacity="1" stop-color="rgb(17.045593%, 16.404724%, 65.943909%)" offset="0.820312"/><stop stop-opacity="1" stop-color="rgb(17.126465%, 16.482544%, 66.25824%)" offset="0.824219"/><stop stop-opacity="1" stop-color="rgb(17.207336%, 16.56189%, 66.572571%)" offset="0.828125"/><stop stop-opacity="1" stop-color="rgb(17.288208%, 16.639709%, 66.885376%)" offset="0.832031"/><stop stop-opacity="1" stop-color="rgb(17.370605%, 16.717529%, 67.199707%)" offset="0.835938"/><stop stop-opacity="1" stop-color="rgb(17.451477%, 16.795349%, 67.514038%)" offset="0.839844"/><stop stop-opacity="1" stop-color="rgb(17.532349%, 16.874695%, 67.828369%)" offset="0.84375"/><stop stop-opacity="1" stop-color="rgb(17.61322%, 16.952515%, 68.1427%)" offset="0.847656"/><stop stop-opacity="1" stop-color="rgb(17.694092%, 17.030334%, 68.457031%)" offset="0.851562"/><stop stop-opacity="1" stop-color="rgb(17.774963%, 17.108154%, 68.769836%)" offset="0.855469"/><stop stop-opacity="1" stop-color="rgb(17.857361%, 17.185974%, 69.084167%)" offset="0.859375"/><stop stop-opacity="1" stop-color="rgb(17.938232%, 17.263794%, 69.398499%)" offset="0.863281"/><stop stop-opacity="1" stop-color="rgb(18.019104%, 17.34314%, 69.71283%)" offset="0.867188"/><stop stop-opacity="1" stop-color="rgb(18.099976%, 17.420959%, 70.025635%)" offset="0.871094"/><stop stop-opacity="1" stop-color="rgb(18.182373%, 17.498779%, 70.339966%)" offset="0.875"/><stop stop-opacity="1" stop-color="rgb(18.263245%, 17.576599%, 70.654297%)" offset="0.878906"/><stop stop-opacity="1" stop-color="rgb(18.344116%, 17.655945%, 70.968628%)" offset="0.882812"/><stop stop-opacity="1" stop-color="rgb(18.424988%, 17.733765%, 71.282959%)" offset="0.886719"/><stop stop-opacity="1" stop-color="rgb(18.505859%, 17.811584%, 71.59729%)" offset="0.890625"/><stop stop-opacity="1" stop-color="rgb(18.586731%, 17.889404%, 71.910095%)" offset="0.894531"/><stop stop-opacity="1" stop-color="rgb(18.669128%, 17.967224%, 72.224426%)" offset="0.898438"/><stop stop-opacity="1" stop-color="rgb(18.75%, 18.045044%, 72.538757%)" offset="0.902344"/><stop stop-opacity="1" stop-color="rgb(18.830872%, 18.12439%, 72.853088%)" offset="0.90625"/><stop stop-opacity="1" stop-color="rgb(18.911743%, 18.202209%, 73.165894%)" offset="0.910156"/><stop stop-opacity="1" stop-color="rgb(18.994141%, 18.280029%, 73.480225%)" offset="0.914062"/><stop stop-opacity="1" stop-color="rgb(19.075012%, 18.357849%, 73.794556%)" offset="0.917969"/><stop stop-opacity="1" stop-color="rgb(19.155884%, 18.437195%, 74.108887%)" offset="0.921875"/><stop stop-opacity="1" stop-color="rgb(19.236755%, 18.515015%, 74.423218%)" offset="0.925781"/><stop stop-opacity="1" stop-color="rgb(19.317627%, 18.592834%, 74.737549%)" offset="0.929688"/><stop stop-opacity="1" stop-color="rgb(19.398499%, 18.670654%, 75.050354%)" offset="0.933594"/><stop stop-opacity="1" stop-color="rgb(19.480896%, 18.748474%, 75.364685%)" offset="0.9375"/><stop stop-opacity="1" stop-color="rgb(19.561768%, 18.826294%, 75.679016%)" offset="0.941406"/><stop stop-opacity="1" stop-color="rgb(19.642639%, 18.90564%, 75.993347%)" offset="0.945312"/><stop stop-opacity="1" stop-color="rgb(19.723511%, 18.983459%, 76.306152%)" offset="0.949219"/><stop stop-opacity="1" stop-color="rgb(19.805908%, 19.061279%, 76.620483%)" offset="0.953125"/><stop stop-opacity="1" stop-color="rgb(19.88678%, 19.139099%, 76.934814%)" offset="0.957031"/><stop stop-opacity="1" stop-color="rgb(19.967651%, 19.218445%, 77.249146%)" offset="0.960938"/><stop stop-opacity="1" stop-color="rgb(20.048523%, 19.296265%, 77.563477%)" offset="0.964844"/><stop stop-opacity="1" stop-color="rgb(20.129395%, 19.374084%, 77.877808%)" offset="0.96875"/><stop stop-opacity="1" stop-color="rgb(20.210266%, 19.451904%, 78.190613%)" offset="0.972656"/><stop stop-opacity="1" stop-color="rgb(20.292664%, 19.529724%, 78.504944%)" offset="0.976562"/><stop stop-opacity="1" stop-color="rgb(20.373535%, 19.607544%, 78.819275%)" offset="0.980469"/><stop stop-opacity="1" stop-color="rgb(20.454407%, 19.68689%, 79.133606%)" offset="0.984375"/><stop stop-opacity="1" stop-color="rgb(20.535278%, 19.764709%, 79.446411%)" offset="0.988281"/><stop stop-opacity="1" stop-color="rgb(20.61615%, 19.842529%, 79.760742%)" offset="0.992188"/><stop stop-opacity="1" stop-color="rgb(20.697021%, 19.920349%, 80.075073%)" offset="0.996094"/><stop stop-opacity="1" stop-color="rgb(20.779419%, 19.999695%, 80.389404%)" offset="1"/></linearGradient><clipPath id="b433e4ff51"><path d="M 37.5 210.960938 L 68.988281 210.960938 L 68.988281 233.554688 L 37.5 233.554688 Z M 37.5 210.960938 " clip-rule="nonzero"/></clipPath><clipPath id="b52b0c471d"><path d="M 37.5 186.019531 L 110.25 186.019531 L 110.25 227.480469 L 37.5 227.480469 Z M 37.5 186.019531 " clip-rule="nonzero"/></clipPath><mask id="264c6730d8"><g filter="url(#52ec36cfef)"><rect x="-37.5" width="450" fill="#000000" y="-37.499999" height="449.999989" fill-opacity="0.39"/></g></mask><clipPath id="2efc34b298"><path d="M 0.390625 93 L 22 93 L 22 152 L 0.390625 152 Z M 0.390625 93 " clip-rule="nonzero"/></clipPath><clipPath id="60b3f1823a"><path d="M 14.015625 142.328125 L 48.847656 142.328125 L 48.847656 152.714844 L 14.015625 152.714844 Z M 14.015625 142.328125 " clip-rule="nonzero"/></clipPath><clipPath id="74dfd063ca"><path d="M 78.601562 78.175781 L 104.640625 78.175781 L 104.640625 102.148438 L 78.601562 102.148438 Z M 78.601562 78.175781 " clip-rule="nonzero"/></clipPath><clipPath id="07e3fb12e7"><path d="M 0.390625 79 L 23 79 L 23 112 L 0.390625 112 Z M 0.390625 79 " clip-rule="nonzero"/></clipPath><clipPath id="a4942aff13"><rect x="0" width="105" y="0" height="156"/></clipPath><clipPath id="47b021d220"><path d="M 2 0.121094 L 24 0.121094 L 24 39 L 2 39 Z M 2 0.121094 " clip-rule="nonzero"/></clipPath><clipPath id="509391d8c6"><path d="M 25 0.121094 L 50 0.121094 L 50 39 L 25 39 Z M 25 0.121094 " clip-rule="nonzero"/></clipPath><clipPath id="d523895d90"><rect x="0" width="53" y="0" height="48"/></clipPath><clipPath id="f03a43a4a4"><path d="M 136 9 L 162.921875 9 L 162.921875 47 L 136 47 Z M 136 9 " clip-rule="nonzero"/></clipPath><clipPath id="b6fcc84616"><rect x="0" width="163" y="0" height="67"/></clipPath></defs><rect x="-37.5" width="450" fill="#ffffff" y="-37.499999" height="449.999989" fill-opacity="1"/><rect x="-37.5" fill="url(#9f79a54154)" width="450" y="-37.499999" height="449.999989"/><g clip-path="url(#b433e4ff51)"><path fill="#5e17eb" d="M 41.875 223.140625 C 41.851562 219.925781 44.519531 217.242188 47.734375 217.246094 C 50.964844 217.25 53.609375 219.839844 53.617188 223.015625 C 53.628906 226.277344 50.917969 229.023438 47.734375 228.980469 C 44.546875 228.941406 41.898438 226.300781 41.875 223.140625 Z M 56.46875 228.910156 C 57.644531 227.171875 58.34375 225.234375 58.859375 223.222656 C 59.515625 220.644531 60.871094 218.664062 63.40625 217.566406 C 65.203125 216.789062 66.984375 215.964844 68.757812 215.128906 L 60.585938 210.964844 C 58.949219 211.773438 57.117188 212.664062 55.640625 213.351562 C 55.082031 213.613281 54.488281 213.417969 53.914062 213.371094 C 51.71875 213.199219 49.539062 212.835938 47.328125 212.925781 C 42.097656 213.136719 38.566406 216.324219 37.640625 221.636719 C 36.84375 226.195312 39.523438 230.890625 43.957031 232.707031 C 48.714844 234.65625 53.585938 233.179688 56.46875 228.910156 " fill-opacity="1" fill-rule="nonzero"/></g><g clip-path="url(#b52b0c471d)"><path fill="#5e17eb" d="M 41.875 196.433594 C 41.898438 193.273438 44.546875 190.632812 47.734375 190.59375 C 50.917969 190.550781 53.628906 193.300781 53.617188 196.558594 C 53.609375 199.734375 50.964844 202.324219 47.734375 202.328125 C 44.519531 202.332031 41.851562 199.648438 41.875 196.433594 Z M 74.089844 209.785156 C 74.089844 209.785156 74.089844 209.785156 74.089844 209.789062 C 74.089844 211.367188 72.8125 212.644531 71.238281 212.644531 C 69.660156 212.644531 68.382812 211.367188 68.382812 209.789062 C 68.382812 209.785156 68.382812 209.785156 68.382812 209.785156 C 68.382812 208.207031 69.660156 206.929688 71.238281 206.929688 C 72.8125 206.929688 74.089844 208.207031 74.089844 209.785156 Z M 55.640625 206.222656 C 58.0625 207.351562 62.964844 209.765625 62.921875 209.789062 L 72.175781 214.160156 C 80.265625 217.9375 88.347656 221.734375 96.675781 224.964844 C 99.074219 225.890625 101.464844 226.859375 104.03125 227.210938 C 105.40625 227.398438 106.792969 227.414062 108.128906 226.96875 C 109.316406 226.574219 110.148438 225.835938 110.324219 224.511719 C 110.402344 223.933594 110.234375 223.613281 109.667969 223.355469 C 103.617188 220.597656 97.578125 217.8125 91.535156 215.039062 C 88.066406 213.445312 80.304688 209.800781 80.332031 209.789062 C 80.304688 209.773438 88.066406 206.128906 91.535156 204.535156 C 97.578125 201.761719 103.617188 198.976562 109.667969 196.21875 C 110.234375 195.960938 110.402344 195.640625 110.324219 195.0625 C 110.148438 193.738281 109.316406 193 108.128906 192.605469 C 106.792969 192.160156 105.40625 192.175781 104.03125 192.363281 C 101.464844 192.714844 99.074219 193.683594 96.675781 194.609375 C 88.347656 197.839844 80.265625 201.636719 72.175781 205.414062 C 71.703125 205.632812 71.328125 205.664062 70.839844 205.433594 C 68.375 204.261719 65.910156 203.089844 63.40625 202.007812 C 60.871094 200.910156 59.515625 198.933594 58.859375 196.351562 C 58.34375 194.339844 57.644531 192.402344 56.46875 190.664062 C 53.585938 186.394531 48.714844 184.917969 43.957031 186.867188 C 39.523438 188.683594 36.84375 193.378906 37.640625 197.9375 C 38.566406 203.25 42.097656 206.4375 47.328125 206.648438 C 49.539062 206.738281 51.71875 206.375 53.914062 206.203125 C 54.488281 206.15625 55.082031 205.960938 55.640625 206.222656 " fill-opacity="1" fill-rule="nonzero"/></g><g mask="url(#264c6730d8)"><g transform="matrix(1, 0, 0, 1, 135, 69)"><g clip-path="url(#a4942aff13)"><path fill="#040606" d="M 60.175781 14.121094 L 56.839844 21.425781 C 56.839844 21.425781 52.363281 27.59375 46.96875 21.921875 C 41.570312 16.25 35.304688 26.671875 40.703125 32.699219 L 34.046875 28.515625 C 32.625 27.589844 31.511719 26.257812 30.839844 24.699219 C 29.359375 21.242188 27.746094 14.941406 32.195312 9.464844 C 38.730469 1.425781 58.046875 0.339844 60.175781 14.121094 " fill-opacity="1" fill-rule="nonzero"/><path fill="#040606" d="M 61.027344 14.757812 L 58.117188 21.425781 C 58.117188 21.425781 56.839844 24.542969 61.667969 24.332031 C 66.496094 24.121094 63.941406 30.359375 63.941406 30.359375 L 66.410156 28.726562 C 67.40625 28.066406 68.15625 27.101562 68.542969 25.976562 C 69.378906 23.550781 70.316406 19.269531 67.796875 16.578125 C 64.984375 13.570312 61.027344 14.757812 61.027344 14.757812 " fill-opacity="1" fill-rule="nonzero"/><path fill="#040606" d="M 33.03125 29.507812 L 33.332031 32.734375 L 37.308594 35.179688 L 37.03125 32.089844 L 33.03125 29.507812 " fill-opacity="1" fill-rule="nonzero"/><path fill="#040606" d="M 67.796875 29.507812 L 67.5 32.734375 L 63.519531 35.179688 L 63.800781 32.089844 L 67.796875 29.507812 " fill-opacity="1" fill-rule="nonzero"/><path fill="#040606" d="M 67.289062 34.851562 L 63.40625 37.355469 C 63.40625 37.355469 63.5 49.695312 58.671875 52.8125 C 57.324219 53.546875 53.839844 51.726562 50.359375 51.726562 C 46.875 51.726562 43.390625 53.546875 42.046875 52.8125 C 37.214844 49.695312 37.308594 37.355469 37.308594 37.355469 L 33.429688 34.851562 C 37.441406 39.953125 36.429688 46.253906 35.476562 49.539062 C 35.089844 50.871094 35.484375 52.300781 36.492188 53.253906 C 40.230469 56.785156 42.378906 61.933594 43.417969 65.066406 C 43.957031 66.699219 45.496094 67.789062 47.21875 67.773438 L 50.359375 67.75 L 53.5 67.773438 C 55.222656 67.789062 56.757812 66.699219 57.300781 65.066406 C 58.335938 61.933594 60.484375 56.785156 64.222656 53.253906 C 65.234375 52.300781 65.625 50.871094 65.238281 49.539062 C 64.289062 46.253906 63.273438 39.953125 67.289062 34.851562 " fill-opacity="1" fill-rule="nonzero"/><path fill="#040606" d="M 57.699219 46.96875 C 57.699219 46.96875 58.773438 47.203125 58.621094 48.183594 C 58.464844 49.164062 57.050781 49.515625 56.335938 49.390625 C 54.761719 49.113281 54.082031 47.28125 51.699219 47.308594 C 51.605469 47.304688 51.511719 47.304688 51.414062 47.320312 C 50.992188 47.371094 50.625 47.570312 50.359375 47.859375 C 50.089844 47.570312 49.722656 47.371094 49.300781 47.320312 C 49.203125 47.304688 49.109375 47.304688 49.015625 47.308594 C 46.636719 47.28125 45.953125 49.113281 44.378906 49.390625 C 43.664062 49.515625 42.25 49.164062 42.097656 48.183594 C 41.945312 47.203125 43.019531 46.96875 43.019531 46.96875 C 41.480469 47.054688 41.433594 48.46875 41.738281 49.238281 C 42.042969 50.007812 43.328125 51.3125 46.027344 51.324219 C 48.730469 51.339844 49.941406 50.527344 49.941406 50.527344 C 49.941406 50.527344 49.941406 50.527344 49.945312 50.523438 C 50.203125 50.378906 50.511719 50.378906 50.769531 50.523438 C 50.773438 50.527344 50.773438 50.527344 50.777344 50.527344 C 50.777344 50.527344 51.988281 51.339844 54.6875 51.324219 C 57.386719 51.3125 58.671875 50.007812 58.976562 49.238281 C 59.28125 48.46875 59.238281 47.054688 57.699219 46.96875 " fill-opacity="1" fill-rule="nonzero"/><path fill="#040606" d="M 52.652344 37.097656 C 52.652344 37.097656 59.210938 34.566406 59.773438 34.664062 C 60.335938 34.761719 62.234375 36.34375 62.234375 36.34375 C 62.234375 36.34375 61.136719 34.078125 59.871094 33.859375 C 58.601562 33.640625 52.796875 35.320312 52.796875 35.320312 L 52.652344 37.097656 " fill-opacity="1" fill-rule="nonzero"/><path fill="#040606" d="M 48.25 37.097656 C 48.25 37.097656 41.6875 34.566406 41.128906 34.664062 C 40.566406 34.761719 38.664062 36.34375 38.664062 36.34375 C 38.664062 36.34375 39.761719 34.078125 41.03125 33.859375 C 42.296875 33.640625 48.101562 35.320312 48.101562 35.320312 L 48.25 37.097656 " fill-opacity="1" fill-rule="nonzero"/><path fill="#040606" d="M 50.839844 46.632812 C 50.839844 46.632812 53.066406 45.03125 53.324219 46.066406 C 53.464844 46.632812 52.703125 45.800781 50.839844 46.632812 " fill-opacity="1" fill-rule="nonzero"/><path fill="#040606" d="M 49.957031 46.632812 C 49.957031 46.632812 47.730469 45.03125 47.46875 46.066406 C 47.328125 46.632812 48.089844 45.800781 49.957031 46.632812 " fill-opacity="1" fill-rule="nonzero"/><path fill="#040606" d="M 47.710938 42.953125 C 47.710938 42.953125 45.679688 43.652344 46.839844 45.707031 C 46.839844 45.707031 46.578125 43.921875 47.710938 42.953125 " fill-opacity="1" fill-rule="nonzero"/><path fill="#040606" d="M 53.0625 42.953125 C 53.0625 42.953125 55.089844 43.652344 53.933594 45.707031 C 53.933594 45.707031 54.191406 43.921875 53.0625 42.953125 " fill-opacity="1" fill-rule="nonzero"/><path fill="#040606" d="M 34.882812 37.988281 C 34.882812 37.988281 34.488281 39.546875 35.003906 40.539062 C 35.519531 41.53125 36.109375 42.660156 35.65625 42.921875 C 35.203125 43.183594 35.121094 41.667969 34.789062 41.511719 C 34.457031 41.351562 33.285156 40.609375 33.367188 39.601562 C 33.453125 38.59375 33.851562 37.980469 34.882812 37.988281 " fill-opacity="1" fill-rule="nonzero"/><path fill="#040606" d="M 35.792969 44.871094 C 35.792969 44.871094 33.855469 45.914062 32.71875 42.132812 C 32.71875 42.132812 33.378906 46.714844 35.792969 44.871094 " fill-opacity="1" fill-rule="nonzero"/><path fill="#040606" d="M 32.339844 40.226562 C 32.339844 40.226562 30.445312 35.132812 32.859375 34.851562 C 32.859375 34.851562 31.296875 35.628906 32.339844 40.226562 " fill-opacity="1" fill-rule="nonzero"/><path fill="#040606" d="M 65.984375 37.988281 C 65.984375 37.988281 66.382812 39.546875 65.867188 40.539062 C 65.351562 41.53125 64.761719 42.660156 65.214844 42.921875 C 65.667969 43.183594 65.75 41.667969 66.082031 41.511719 C 66.414062 41.351562 67.585938 40.609375 67.503906 39.601562 C 67.417969 38.59375 67.019531 37.980469 65.984375 37.988281 " fill-opacity="1" fill-rule="nonzero"/><path fill="#040606" d="M 65.074219 44.871094 C 65.074219 44.871094 67.019531 45.914062 68.152344 42.132812 C 68.152344 42.132812 67.492188 46.714844 65.074219 44.871094 " fill-opacity="1" fill-rule="nonzero"/><path fill="#040606" d="M 68.53125 40.226562 C 68.53125 40.226562 70.425781 35.132812 68.011719 34.851562 C 68.011719 34.851562 69.574219 35.628906 68.53125 40.226562 " fill-opacity="1" fill-rule="nonzero"/><path fill="#040606" d="M 37.949219 56.453125 L 37.453125 65.671875 L 46.328125 71.34375 L 49.097656 73.898438 L 47.925781 72.238281 C 47.007812 70.945312 45.878906 69.816406 44.582031 68.902344 L 41.539062 66.753906 C 40.109375 65.746094 39.148438 64.199219 38.878906 62.46875 L 37.949219 56.453125 " fill-opacity="1" fill-rule="nonzero"/><path fill="#040606" d="M 36.8125 65.957031 L 31.34375 68.507812 L 38.375 78.4375 L 40.433594 76.382812 C 39.257812 76.71875 37.996094 76.234375 37.34375 75.203125 L 34.667969 70.96875 C 33.949219 69.832031 34.15625 68.351562 35.152344 67.453125 L 36.8125 65.957031 " fill-opacity="1" fill-rule="nonzero"/><path fill="#040606" d="M 43.273438 73.519531 L 45.832031 72.199219 L 49.820312 74.65625 L 47.78125 74.042969 C 46.429688 73.632812 45.015625 73.453125 43.601562 73.507812 L 43.273438 73.519531 " fill-opacity="1" fill-rule="nonzero"/><path fill="#040606" d="M 62.65625 56.453125 L 63.15625 65.671875 L 54.277344 71.34375 L 51.507812 73.898438 L 52.683594 72.238281 C 53.597656 70.945312 54.726562 69.816406 56.023438 68.902344 L 59.070312 66.753906 C 60.5 65.746094 61.460938 64.199219 61.726562 62.46875 L 62.65625 56.453125 " fill-opacity="1" fill-rule="nonzero"/><path fill="#040606" d="M 63.792969 65.957031 L 69.261719 68.507812 L 62.230469 78.4375 L 60.171875 76.382812 C 61.351562 76.71875 62.609375 76.234375 63.265625 75.203125 L 65.941406 70.96875 C 66.65625 69.832031 66.449219 68.351562 65.453125 67.453125 L 63.792969 65.957031 " fill-opacity="1" fill-rule="nonzero"/><path fill="#040606" d="M 57.332031 73.519531 L 54.777344 72.199219 L 50.789062 74.65625 L 52.824219 74.042969 C 54.179688 73.632812 55.59375 73.453125 57.003906 73.507812 L 57.332031 73.519531 " fill-opacity="1" fill-rule="nonzero"/><path fill="#040606" d="M 15.816406 82.40625 C 13.398438 81.53125 12.105469 81.289062 10.285156 83.214844 C 9.75 82.226562 9.273438 81.371094 8.863281 80.660156 C 10.003906 79.148438 10.644531 78.894531 11.425781 78.734375 C 13.128906 78.386719 15.816406 82.40625 15.816406 82.40625 " fill-opacity="1" fill-rule="nonzero"/><g clip-path="url(#2efc34b298)"><path fill="#040606" d="M 15.292969 151.191406 C 13.589844 152.328125 12.597656 151.472656 10.890625 151.191406 C 9.1875 150.90625 6.632812 149.488281 6.488281 147.644531 C 6.347656 145.800781 3.792969 144.808594 3.363281 142.964844 C 2.9375 141.121094 4.925781 140.128906 5.496094 139.421875 C 6.0625 138.710938 3.363281 138.710938 2.796875 138.285156 C 2.230469 137.859375 2.9375 133.890625 3.363281 133.320312 C 3.792969 132.753906 3.082031 129.917969 2.511719 129.210938 C 1.945312 128.5 0.808594 125.804688 1.519531 123.25 C 2.230469 120.699219 1.800781 119.988281 1.09375 117.011719 C 0.382812 114.035156 1.234375 111.90625 2.210938 109.210938 C 3.1875 106.515625 2.511719 103.113281 2.230469 99.566406 C 2.007812 96.808594 3.621094 93.089844 3.621094 93.089844 C 3.753906 93.257812 4.269531 94.242188 4.269531 94.242188 C 3.109375 97.292969 3.457031 97.746094 3.363281 99.921875 C 3.109375 106.089844 7.414062 108.714844 7.414062 108.714844 C 2.796875 111.199219 2.652344 116.445312 2.441406 118.289062 C 2.230469 120.132812 4.785156 121.621094 4.785156 121.621094 C 1.589844 124.8125 4.785156 129.066406 4.785156 129.066406 C 10.183594 127.367188 16.574219 129.777344 16.574219 129.777344 C 5.355469 130.484375 4.5 137.152344 4.5 137.152344 C 7.199219 133.179688 13.308594 133.039062 13.308594 133.039062 C 6.347656 139.988281 11.375 142.398438 11.375 142.398438 C 11.855469 133.605469 21.917969 131.773438 21.917969 131.773438 C 8.066406 139.21875 15.292969 151.191406 15.292969 151.191406 " fill-opacity="1" fill-rule="nonzero"/></g><path fill="#040606" d="M 4.828125 91.296875 L 5.519531 90.960938 C 5.441406 91.15625 5.367188 91.347656 5.292969 91.542969 L 5.011719 91.679688 C 4.941406 91.714844 4.839844 91.660156 4.789062 91.554688 C 4.738281 91.445312 4.753906 91.332031 4.828125 91.296875 " fill-opacity="1" fill-rule="nonzero"/><path fill="#040606" d="M 84.710938 82.40625 C 84.710938 82.40625 87.144531 78.433594 89.027344 78.738281 C 89.863281 78.875 90.367188 79.148438 91.507812 80.660156 L 90.789062 84.347656 C 88.824219 81.867188 87.46875 81.40625 84.710938 82.40625 " fill-opacity="1" fill-rule="nonzero"/><path fill="#040606" d="M 99.433594 117.011719 C 98.722656 119.988281 98.296875 120.699219 99.007812 123.25 C 99.71875 125.804688 98.582031 128.5 98.015625 129.210938 C 97.445312 129.917969 96.734375 132.753906 97.160156 133.320312 C 97.589844 133.890625 98.296875 137.859375 97.730469 138.285156 C 97.160156 138.710938 94.460938 138.710938 95.03125 139.421875 C 95.601562 140.128906 97.589844 141.121094 97.160156 142.964844 C 96.734375 144.808594 94.179688 145.800781 94.039062 147.644531 C 93.894531 149.488281 91.339844 150.90625 89.632812 151.191406 C 87.929688 151.472656 86.933594 152.328125 85.230469 151.191406 C 85.230469 151.191406 92.457031 139.21875 78.609375 131.773438 C 78.609375 131.773438 88.671875 133.605469 89.152344 142.398438 C 89.152344 142.398438 94.179688 139.988281 87.21875 133.039062 C 87.21875 133.039062 93.328125 133.179688 96.027344 137.152344 C 96.027344 137.152344 95.171875 130.484375 83.953125 129.777344 C 83.953125 129.777344 90.34375 127.367188 95.742188 129.066406 C 95.742188 129.066406 98.9375 124.8125 95.742188 121.621094 C 95.742188 121.621094 98.296875 120.132812 98.085938 118.289062 C 97.871094 116.445312 97.730469 111.199219 93.113281 108.714844 C 93.113281 108.714844 97.417969 106.089844 97.160156 99.921875 C 97.074219 97.773438 97.074219 96.191406 95.941406 93.175781 L 96.964844 91.636719 C 98.011719 94.671875 98.507812 96.960938 98.296875 99.566406 C 98.015625 103.113281 97.339844 106.515625 98.316406 109.210938 C 99.292969 111.90625 100.144531 114.035156 99.433594 117.011719 " fill-opacity="1" fill-rule="nonzero"/><g clip-path="url(#60b3f1823a)"><path fill="#040606" d="M 14.300781 146.746094 C 14.300781 146.746094 15.625 152.988281 20.457031 152.703125 C 25.285156 152.421875 37.027344 149.488281 48.578125 142.585938 C 48.578125 142.585938 34.375 149.585938 25.285156 150.152344 C 25.285156 150.152344 28.289062 149.359375 29.925781 147.652344 C 29.925781 147.652344 18.960938 153.660156 14.300781 146.746094 " fill-opacity="1" fill-rule="nonzero"/></g><path fill="#040606" d="M 70.355469 68.933594 L 88.441406 77.160156 C 88.441406 77.160156 82.210938 78.976562 78.972656 97.601562 C 78.972656 97.601562 76.320312 96.3125 76.320312 101.128906 C 76.320312 105.242188 72.878906 105.585938 70.796875 107.761719 C 68.710938 109.933594 68.34375 115.710938 66.355469 119.113281 C 64.367188 122.515625 51.703125 125.378906 51.703125 125.378906 C 51.703125 125.378906 38.589844 122.96875 36.742188 118.574219 C 34.894531 114.175781 34.660156 111.292969 32.765625 110.347656 C 30.871094 109.402344 24.953125 106.800781 24.953125 106.800781 C 24.953125 106.800781 21.117188 80.804688 12.21875 77.847656 L 30.113281 69.40625 C 30.113281 69.40625 43.816406 88.082031 50.789062 120.273438 C 50.789062 120.273438 57.667969 88.082031 70.355469 68.933594 " fill-opacity="1" fill-rule="nonzero"/><path fill="#040606" d="M 75.601562 151.273438 C 64.523438 148.933594 53.445312 139.21875 38.320312 132.621094 C 31.441406 129.492188 20.125 132.472656 18.703125 125.378906 C 18.703125 125.378906 13.734375 123.394531 16.855469 120.132812 C 16.855469 120.132812 12.453125 117.042969 16.433594 115.324219 C 16.433594 115.324219 13.164062 113.183594 15.722656 110.488281 C 15.722656 110.488281 18.230469 111.710938 21.121094 112.070312 C 21.785156 112.152344 22.472656 112.1875 23.152344 112.152344 C 24.015625 112.109375 24.871094 111.953125 25.664062 111.625 C 25.640625 111.660156 25.140625 112.472656 23.515625 112.933594 C 23.042969 113.066406 22.46875 113.171875 21.785156 113.21875 C 20.574219 113.300781 19.007812 113.199219 17 112.757812 C 17 112.757812 14.726562 114.488281 18.632812 115.324219 C 18.632812 115.324219 13.589844 117.367188 18.421875 119.921875 C 18.421875 119.921875 15.011719 123.605469 20.40625 125.027344 C 20.40625 125.027344 22.796875 130.273438 31.441406 130.058594 C 40.078125 129.847656 41.710938 132.894531 45.546875 134.882812 C 49.382812 136.867188 64.195312 146.949219 75.183594 149.300781 C 75.070312 149.261719 71.441406 148.027344 68.273438 145.140625 C 68.273438 145.140625 83.21875 154.664062 85.613281 146.808594 C 85.613281 146.808594 86.679688 153.613281 75.601562 151.273438 " fill-opacity="1" fill-rule="nonzero"/><path fill="#040606" d="M 54.519531 126.21875 C 54.519531 126.21875 72.09375 125.925781 77.433594 132.277344 C 77.433594 132.277344 70.171875 127.890625 54.519531 126.21875 " fill-opacity="1" fill-rule="nonzero"/><path fill="#040606" d="M 76.320312 103.398438 C 76.320312 103.398438 81.765625 99.472656 81.625 104.863281 C 81.625 104.863281 80.394531 101.695312 76.320312 103.398438 " fill-opacity="1" fill-rule="nonzero"/><path fill="#040606" d="M 85.269531 105.621094 C 85.269531 105.621094 90.382812 102.785156 89.53125 107.464844 C 89.53125 107.464844 91.660156 101.035156 85.269531 105.621094 " fill-opacity="1" fill-rule="nonzero"/><path fill="#040606" d="M 88.15625 103.441406 C 88.15625 103.441406 90.144531 102.511719 90.359375 105.242188 C 90.359375 105.242188 90.289062 103.46875 90.925781 101.554688 C 91.566406 99.640625 92.984375 96.589844 93.058594 94.886719 C 93.058594 94.886719 93.058594 94.535156 91.210938 95.3125 C 91.210938 95.3125 92.558594 98.804688 88.15625 103.441406 " fill-opacity="1" fill-rule="nonzero"/><path fill="#040606" d="M 90.605469 91.625 L 94.121094 73.898438 L 93.089844 89.746094 C 93.089844 89.746094 91.746094 90.898438 90.605469 91.625 " fill-opacity="1" fill-rule="nonzero"/><path fill="#040606" d="M 81.199219 105.714844 C 81.199219 105.714844 78.738281 108.574219 78.972656 109.710938 C 79.210938 110.84375 83.894531 108.929688 84.820312 106.589844 C 84.820312 106.589844 81.917969 108.988281 80.949219 108.539062 C 79.980469 108.089844 81.886719 107.464844 81.199219 105.714844 " fill-opacity="1" fill-rule="nonzero"/><path fill="#040606" d="M 74.238281 128.074219 C 74.238281 128.074219 75.230469 126.089844 80.203125 124.246094 C 85.175781 122.402344 91.40625 120.699219 91.628906 117.296875 C 91.628906 115.804688 90.605469 115.804688 90.605469 115.804688 C 90.605469 115.804688 91.769531 115.347656 91.71875 113.855469 C 91.671875 112.414062 90.605469 111.90625 90.605469 111.90625 C 90.605469 111.90625 91.722656 111.234375 91.335938 109.527344 C 90.882812 107.523438 87.570312 109.175781 87.570312 109.175781 C 87.570312 109.175781 90.019531 108.757812 90.351562 110.242188 C 90.605469 111.375 88.761719 112.191406 88.761719 112.191406 C 88.761719 112.191406 90.390625 112.011719 90.429688 113.609375 C 90.464844 114.992188 88.972656 116.160156 88.972656 116.160156 C 88.972656 116.160156 90.394531 116.339844 90.394531 117.898438 C 90.394531 119.457031 83.707031 123.441406 79.257812 122.589844 C 74.808594 121.742188 74.238281 128.074219 74.238281 128.074219 " fill-opacity="1" fill-rule="nonzero"/><g clip-path="url(#74dfd063ca)"><path fill="#040606" d="M 92.367188 93.496094 C 92.0625 93.496094 91.820312 93.25 91.820312 92.949219 C 91.820312 92.648438 92.0625 92.40625 92.367188 92.40625 C 92.664062 92.40625 92.910156 92.648438 92.910156 92.949219 C 92.910156 93.25 92.664062 93.496094 92.367188 93.496094 Z M 91.699219 91.839844 C 88.859375 93.824219 87.082031 94.535156 84.382812 96.660156 C 81.6875 98.789062 82.027344 99.558594 78.609375 101.410156 C 78.609375 101.410156 81.40625 100.636719 81.261719 102.019531 C 81.261719 102.019531 82.820312 96.09375 93.476562 93.964844 C 93.476562 93.964844 101.144531 84.25 104.648438 78.4375 C 104.648438 78.4375 94.539062 89.855469 91.699219 91.839844 " fill-opacity="1" fill-rule="nonzero"/></g><path fill="#040606" d="M 49.820312 82.761719 C 49.820312 82.761719 47.597656 98.617188 50.789062 112.476562 C 50.789062 112.476562 48.691406 93.46875 49.820312 82.761719 " fill-opacity="1" fill-rule="nonzero"/><path fill="#040606" d="M 6.75 81.460938 L 5.773438 81.933594 L 1.328125 84.089844 C 1.253906 84.125 1.152344 84.066406 1.101562 83.960938 C 1.050781 83.855469 1.066406 83.742188 1.140625 83.707031 L 5.207031 81.734375 L 6.5625 81.078125 C 6.636719 81.042969 6.738281 81.101562 6.785156 81.207031 C 6.839844 81.3125 6.820312 81.425781 6.75 81.460938 " fill-opacity="1" fill-rule="nonzero"/><path fill="#040606" d="M 7.277344 82.546875 L 6.53125 82.90625 L 1.851562 85.171875 C 1.78125 85.207031 1.679688 85.152344 1.628906 85.046875 C 1.574219 84.941406 1.59375 84.824219 1.667969 84.789062 L 6.300781 82.546875 L 7.089844 82.164062 C 7.164062 82.128906 7.265625 82.1875 7.3125 82.292969 C 7.367188 82.398438 7.347656 82.511719 7.277344 82.546875 " fill-opacity="1" fill-rule="nonzero"/><path fill="#040606" d="M 7.804688 83.632812 L 7.140625 83.953125 L 2.378906 86.257812 C 2.304688 86.292969 2.207031 86.234375 2.15625 86.128906 C 2.101562 86.023438 2.121094 85.910156 2.195312 85.875 L 6.929688 83.582031 L 7.617188 83.25 C 7.6875 83.214844 7.789062 83.269531 7.839844 83.375 C 7.890625 83.480469 7.875 83.597656 7.804688 83.632812 " fill-opacity="1" fill-rule="nonzero"/><path fill="#040606" d="M 8.328125 84.714844 L 7.714844 85.015625 L 2.90625 87.339844 C 2.832031 87.378906 2.734375 87.320312 2.683594 87.214844 C 2.628906 87.109375 2.648438 86.996094 2.722656 86.957031 L 7.515625 84.640625 L 8.144531 84.335938 C 8.214844 84.296875 8.316406 84.355469 8.367188 84.460938 C 8.417969 84.566406 8.402344 84.679688 8.328125 84.714844 " fill-opacity="1" fill-rule="nonzero"/><path fill="#040606" d="M 8.855469 85.800781 L 8.273438 86.085938 L 3.433594 88.425781 C 3.359375 88.460938 3.261719 88.40625 3.207031 88.300781 C 3.15625 88.195312 3.175781 88.078125 3.25 88.042969 L 8.078125 85.707031 L 8.667969 85.417969 C 8.742188 85.382812 8.84375 85.441406 8.894531 85.546875 C 8.945312 85.652344 8.929688 85.765625 8.855469 85.800781 " fill-opacity="1" fill-rule="nonzero"/><path fill="#040606" d="M 9.382812 86.886719 L 8.820312 87.160156 L 3.960938 89.511719 C 3.886719 89.546875 3.785156 89.488281 3.734375 89.382812 C 3.683594 89.277344 3.703125 89.164062 3.773438 89.128906 L 8.625 86.78125 L 9.195312 86.503906 C 9.269531 86.46875 9.371094 86.523438 9.421875 86.628906 C 9.472656 86.734375 9.457031 86.847656 9.382812 86.886719 " fill-opacity="1" fill-rule="nonzero"/><path fill="#040606" d="M 9.910156 87.96875 L 9.355469 88.238281 L 5.984375 89.871094 L 4.878906 90.40625 L 4.488281 90.59375 C 4.414062 90.628906 4.3125 90.574219 4.261719 90.46875 C 4.210938 90.363281 4.226562 90.25 4.300781 90.214844 L 5.046875 89.851562 L 6.265625 89.261719 L 9.167969 87.855469 L 9.722656 87.589844 C 9.796875 87.550781 9.898438 87.609375 9.949219 87.714844 C 10 87.820312 9.984375 87.933594 9.910156 87.96875 " fill-opacity="1" fill-rule="nonzero"/><path fill="#040606" d="M 10.4375 89.054688 L 9.890625 89.320312 L 5.292969 91.542969 L 5.011719 91.679688 C 4.941406 91.714844 4.839844 91.660156 4.789062 91.554688 C 4.738281 91.445312 4.753906 91.332031 4.828125 91.296875 L 5.519531 90.960938 L 9.703125 88.9375 L 10.25 88.671875 C 10.324219 88.636719 10.425781 88.691406 10.476562 88.800781 C 10.527344 88.90625 10.507812 89.019531 10.4375 89.054688 " fill-opacity="1" fill-rule="nonzero"/><path fill="#040606" d="M 10.964844 90.140625 L 10.417969 90.40625 L 5.539062 92.765625 C 5.46875 92.800781 5.367188 92.742188 5.316406 92.636719 C 5.265625 92.53125 5.28125 92.417969 5.355469 92.382812 L 10.230469 90.023438 L 10.777344 89.757812 C 10.851562 89.722656 10.949219 89.777344 11.003906 89.882812 C 11.054688 89.988281 11.035156 90.105469 10.964844 90.140625 " fill-opacity="1" fill-rule="nonzero"/><path fill="#040606" d="M 11.492188 91.222656 L 10.941406 91.492188 L 6.066406 93.851562 C 5.996094 93.886719 5.894531 93.828125 5.839844 93.722656 C 5.792969 93.617188 5.808594 93.503906 5.882812 93.46875 L 10.757812 91.105469 L 11.304688 90.84375 C 11.378906 90.804688 11.476562 90.863281 11.527344 90.96875 C 11.582031 91.074219 11.5625 91.191406 11.492188 91.222656 " fill-opacity="1" fill-rule="nonzero"/><path fill="#040606" d="M 12.019531 92.308594 L 11.460938 92.578125 L 6.59375 94.933594 C 6.519531 94.96875 6.417969 94.910156 6.367188 94.808594 C 6.316406 94.699219 6.335938 94.585938 6.40625 94.550781 L 11.277344 92.195312 L 11.832031 91.925781 C 11.902344 91.890625 12.003906 91.949219 12.054688 92.050781 C 12.105469 92.160156 12.089844 92.273438 12.019531 92.308594 " fill-opacity="1" fill-rule="nonzero"/><path fill="#040606" d="M 12.542969 93.394531 L 11.980469 93.664062 L 7.121094 96.019531 C 7.046875 96.054688 6.945312 95.996094 6.894531 95.890625 C 6.84375 95.785156 6.859375 95.671875 6.933594 95.636719 L 11.796875 93.28125 L 12.359375 93.011719 C 12.429688 92.976562 12.53125 93.03125 12.582031 93.136719 C 12.632812 93.246094 12.617188 93.359375 12.542969 93.394531 " fill-opacity="1" fill-rule="nonzero"/><path fill="#040606" d="M 13.070312 94.476562 L 12.496094 94.757812 L 7.648438 97.105469 C 7.574219 97.136719 7.472656 97.082031 7.421875 96.976562 C 7.371094 96.871094 7.386719 96.757812 7.460938 96.71875 L 12.3125 94.371094 L 12.886719 94.09375 C 12.957031 94.058594 13.058594 94.117188 13.109375 94.222656 C 13.160156 94.328125 13.144531 94.441406 13.070312 94.476562 " fill-opacity="1" fill-rule="nonzero"/><path fill="#040606" d="M 13.597656 95.5625 L 13.011719 95.847656 L 8.175781 98.1875 C 8.101562 98.222656 8 98.167969 7.949219 98.058594 C 7.898438 97.957031 7.914062 97.839844 7.988281 97.804688 L 12.828125 95.460938 L 13.410156 95.179688 C 13.484375 95.144531 13.585938 95.203125 13.636719 95.308594 C 13.6875 95.414062 13.671875 95.527344 13.597656 95.5625 " fill-opacity="1" fill-rule="nonzero"/><path fill="#040606" d="M 14.125 96.648438 L 13.527344 96.9375 L 8.699219 99.273438 C 8.628906 99.308594 8.527344 99.253906 8.476562 99.144531 C 8.425781 99.039062 8.441406 98.925781 8.515625 98.890625 L 13.34375 96.550781 L 13.9375 96.265625 C 14.011719 96.230469 14.113281 96.285156 14.164062 96.390625 C 14.214844 96.496094 14.195312 96.613281 14.125 96.648438 " fill-opacity="1" fill-rule="nonzero"/><path fill="#040606" d="M 14.648438 97.730469 L 14.039062 98.027344 L 9.226562 100.359375 C 9.15625 100.394531 9.054688 100.335938 9.003906 100.230469 C 8.953125 100.125 8.96875 100.011719 9.042969 99.976562 L 13.859375 97.640625 L 14.464844 97.347656 C 14.539062 97.316406 14.640625 97.371094 14.691406 97.476562 C 14.742188 97.582031 14.722656 97.695312 14.648438 97.730469 " fill-opacity="1" fill-rule="nonzero"/><path fill="#040606" d="M 15.175781 98.816406 L 14.554688 99.117188 L 9.753906 101.445312 C 9.683594 101.480469 9.582031 101.421875 9.53125 101.316406 C 9.476562 101.207031 9.496094 101.09375 9.570312 101.0625 L 14.371094 98.734375 L 14.992188 98.433594 C 15.066406 98.398438 15.167969 98.457031 15.21875 98.5625 C 15.269531 98.667969 15.25 98.78125 15.175781 98.816406 " fill-opacity="1" fill-rule="nonzero"/><path fill="#040606" d="M 15.703125 99.902344 L 15.070312 100.207031 L 10.28125 102.527344 C 10.210938 102.5625 10.109375 102.503906 10.058594 102.402344 C 10.003906 102.292969 10.023438 102.179688 10.097656 102.144531 L 14.886719 99.824219 L 15.519531 99.519531 C 15.589844 99.484375 15.691406 99.539062 15.742188 99.644531 C 15.796875 99.75 15.777344 99.867188 15.703125 99.902344 " fill-opacity="1" fill-rule="nonzero"/><path fill="#040606" d="M 16.230469 100.988281 L 15.589844 101.296875 L 10.808594 103.613281 C 10.738281 103.648438 10.632812 103.589844 10.582031 103.484375 C 10.53125 103.378906 10.550781 103.265625 10.621094 103.230469 L 15.40625 100.914062 L 16.046875 100.601562 C 16.117188 100.566406 16.21875 100.625 16.269531 100.730469 C 16.324219 100.835938 16.304688 100.953125 16.230469 100.988281 " fill-opacity="1" fill-rule="nonzero"/><path fill="#040606" d="M 16.757812 102.070312 L 16.113281 102.382812 L 11.335938 104.695312 C 11.261719 104.730469 11.160156 104.675781 11.109375 104.570312 C 11.058594 104.464844 11.078125 104.347656 11.148438 104.3125 L 15.933594 101.996094 L 16.570312 101.6875 C 16.644531 101.652344 16.746094 101.710938 16.796875 101.816406 C 16.847656 101.921875 16.832031 102.035156 16.757812 102.070312 " fill-opacity="1" fill-rule="nonzero"/><path fill="#040606" d="M 17.285156 103.15625 L 15.851562 103.847656 L 11.863281 105.78125 C 11.789062 105.816406 11.6875 105.761719 11.636719 105.652344 C 11.585938 105.546875 11.601562 105.433594 11.675781 105.398438 L 16.164062 103.226562 L 17.097656 102.773438 C 17.171875 102.738281 17.273438 102.796875 17.324219 102.898438 C 17.375 103.007812 17.359375 103.121094 17.285156 103.15625 " fill-opacity="1" fill-rule="nonzero"/><g clip-path="url(#07e3fb12e7)"><path fill="#040606" d="M 22.585938 111.03125 C 21.90625 111.070312 21.222656 111.03125 20.558594 110.949219 C 18.648438 107.695312 17.484375 106.347656 16.503906 106.253906 C 14.570312 106.0625 12.902344 106.28125 11.964844 106.453125 C 11.867188 106.472656 11.824219 106.335938 11.914062 106.292969 C 13.003906 105.796875 15.035156 104.964844 15.851562 103.847656 L 17.285156 103.15625 C 17.359375 103.121094 17.375 103.007812 17.324219 102.898438 C 17.273438 102.796875 17.171875 102.738281 17.097656 102.773438 L 16.164062 103.226562 C 16.234375 102.957031 16.226562 102.675781 16.113281 102.382812 L 16.757812 102.070312 C 16.832031 102.035156 16.847656 101.921875 16.796875 101.816406 C 16.746094 101.710938 16.644531 101.652344 16.570312 101.6875 L 15.933594 101.996094 C 15.839844 101.8125 15.722656 101.574219 15.589844 101.296875 L 16.230469 100.988281 C 16.304688 100.953125 16.324219 100.835938 16.269531 100.730469 C 16.21875 100.625 16.117188 100.566406 16.046875 100.601562 L 15.40625 100.914062 C 15.300781 100.695312 15.191406 100.460938 15.070312 100.207031 L 15.703125 99.902344 C 15.777344 99.867188 15.796875 99.75 15.742188 99.644531 C 15.691406 99.539062 15.589844 99.484375 15.519531 99.519531 L 14.886719 99.824219 C 14.78125 99.597656 14.667969 99.363281 14.554688 99.117188 L 15.175781 98.816406 C 15.25 98.78125 15.269531 98.667969 15.21875 98.5625 C 15.167969 98.457031 15.066406 98.398438 14.992188 98.433594 L 14.371094 98.734375 C 14.265625 98.507812 14.152344 98.269531 14.039062 98.027344 L 14.648438 97.730469 C 14.722656 97.695312 14.742188 97.582031 14.691406 97.476562 C 14.640625 97.371094 14.539062 97.316406 14.464844 97.347656 L 13.859375 97.640625 C 13.75 97.414062 13.640625 97.175781 13.527344 96.9375 L 14.125 96.648438 C 14.195312 96.613281 14.214844 96.496094 14.164062 96.390625 C 14.113281 96.285156 14.011719 96.230469 13.9375 96.265625 L 13.34375 96.550781 C 13.234375 96.320312 13.125 96.085938 13.011719 95.847656 L 13.597656 95.5625 C 13.671875 95.527344 13.6875 95.414062 13.636719 95.308594 C 13.585938 95.203125 13.484375 95.144531 13.410156 95.179688 L 12.828125 95.460938 C 12.71875 95.230469 12.609375 94.996094 12.496094 94.757812 L 13.070312 94.476562 C 13.144531 94.441406 13.160156 94.328125 13.109375 94.222656 C 13.058594 94.117188 12.957031 94.058594 12.886719 94.09375 L 12.3125 94.371094 C 12.203125 94.136719 12.09375 93.902344 11.980469 93.664062 L 12.542969 93.394531 C 12.617188 93.359375 12.632812 93.246094 12.582031 93.136719 C 12.53125 93.03125 12.429688 92.976562 12.359375 93.011719 L 11.796875 93.28125 C 11.6875 93.046875 11.574219 92.8125 11.460938 92.578125 L 12.019531 92.308594 C 12.089844 92.273438 12.105469 92.160156 12.054688 92.050781 C 12.003906 91.949219 11.902344 91.890625 11.832031 91.925781 L 11.277344 92.195312 C 11.167969 91.957031 11.050781 91.722656 10.941406 91.492188 L 11.492188 91.222656 C 11.5625 91.191406 11.582031 91.074219 11.527344 90.96875 C 11.476562 90.863281 11.378906 90.804688 11.304688 90.84375 L 10.757812 91.105469 C 10.644531 90.871094 10.53125 90.636719 10.417969 90.40625 L 10.964844 90.140625 C 11.035156 90.105469 11.054688 89.988281 11.003906 89.882812 C 10.949219 89.777344 10.851562 89.722656 10.777344 89.757812 L 10.230469 90.023438 C 10.117188 89.785156 10.003906 89.554688 9.890625 89.320312 L 10.4375 89.054688 C 10.507812 89.019531 10.527344 88.90625 10.476562 88.800781 C 10.425781 88.691406 10.324219 88.636719 10.25 88.671875 L 9.703125 88.9375 C 9.585938 88.703125 9.472656 88.46875 9.355469 88.238281 L 9.910156 87.96875 C 9.984375 87.933594 10 87.820312 9.949219 87.714844 C 9.898438 87.609375 9.796875 87.550781 9.722656 87.589844 L 9.167969 87.855469 C 9.050781 87.621094 8.933594 87.386719 8.820312 87.160156 L 9.382812 86.886719 C 9.457031 86.847656 9.472656 86.734375 9.421875 86.628906 C 9.371094 86.523438 9.269531 86.46875 9.195312 86.503906 L 8.625 86.78125 C 8.507812 86.539062 8.386719 86.308594 8.273438 86.085938 L 8.855469 85.800781 C 8.929688 85.765625 8.945312 85.652344 8.894531 85.546875 C 8.84375 85.441406 8.742188 85.382812 8.667969 85.417969 L 8.519531 85.492188 L 8.078125 85.707031 C 7.953125 85.464844 7.832031 85.238281 7.714844 85.015625 L 8.328125 84.714844 C 8.402344 84.679688 8.417969 84.566406 8.367188 84.460938 C 8.316406 84.355469 8.214844 84.296875 8.144531 84.335938 L 7.515625 84.640625 C 7.382812 84.394531 7.261719 84.167969 7.140625 83.953125 L 7.804688 83.632812 C 7.875 83.597656 7.890625 83.480469 7.839844 83.375 C 7.789062 83.269531 7.6875 83.214844 7.617188 83.25 L 6.929688 83.582031 C 6.921875 83.566406 6.910156 83.550781 6.902344 83.535156 C 6.769531 83.304688 6.648438 83.09375 6.53125 82.90625 L 7.277344 82.546875 C 7.347656 82.511719 7.367188 82.398438 7.3125 82.292969 C 7.265625 82.1875 7.164062 82.128906 7.089844 82.164062 L 6.300781 82.546875 C 6.105469 82.261719 5.949219 82.0625 5.835938 81.976562 C 5.816406 81.960938 5.792969 81.945312 5.773438 81.933594 L 6.75 81.460938 C 6.820312 81.425781 6.839844 81.3125 6.785156 81.207031 C 6.738281 81.101562 6.636719 81.042969 6.5625 81.078125 L 5.207031 81.734375 C 3.949219 81.554688 1.867188 82.460938 0.660156 82.957031 C 0.527344 83.015625 0.425781 82.832031 0.542969 82.746094 C 1.988281 81.675781 5.21875 79.40625 6.410156 79.617188 C 6.617188 79.652344 7.175781 80.472656 7.992188 81.878906 C 8.402344 82.589844 8.878906 83.449219 9.414062 84.4375 C 12.714844 90.558594 18.089844 101.476562 22.585938 111.03125 " fill-opacity="1" fill-rule="nonzero"/></g><path fill="#040606" d="M 6.75 81.460938 L 5.773438 81.933594 C 5.613281 81.828125 5.421875 81.765625 5.207031 81.734375 L 6.5625 81.078125 C 6.636719 81.042969 6.738281 81.101562 6.785156 81.207031 C 6.839844 81.3125 6.820312 81.425781 6.75 81.460938 " fill-opacity="1" fill-rule="nonzero"/><path fill="#040606" d="M 7.277344 82.546875 L 6.53125 82.90625 C 6.449219 82.773438 6.371094 82.65625 6.300781 82.546875 L 7.089844 82.164062 C 7.164062 82.128906 7.265625 82.1875 7.3125 82.292969 C 7.367188 82.398438 7.347656 82.511719 7.277344 82.546875 " fill-opacity="1" fill-rule="nonzero"/><path fill="#040606" d="M 7.804688 83.632812 L 7.140625 83.953125 C 7.066406 83.824219 7 83.699219 6.929688 83.582031 L 7.617188 83.25 C 7.6875 83.214844 7.789062 83.269531 7.839844 83.375 C 7.890625 83.480469 7.875 83.597656 7.804688 83.632812 " fill-opacity="1" fill-rule="nonzero"/><path fill="#040606" d="M 8.328125 84.714844 L 7.714844 85.015625 C 7.648438 84.886719 7.582031 84.761719 7.515625 84.640625 L 8.144531 84.335938 C 8.214844 84.296875 8.316406 84.355469 8.367188 84.460938 C 8.417969 84.566406 8.402344 84.679688 8.328125 84.714844 " fill-opacity="1" fill-rule="nonzero"/><path fill="#040606" d="M 8.855469 85.800781 L 8.273438 86.085938 C 8.207031 85.957031 8.140625 85.828125 8.078125 85.707031 L 8.667969 85.417969 C 8.742188 85.382812 8.84375 85.441406 8.894531 85.546875 C 8.945312 85.652344 8.929688 85.765625 8.855469 85.800781 " fill-opacity="1" fill-rule="nonzero"/><path fill="#040606" d="M 9.382812 86.886719 L 8.820312 87.160156 C 8.753906 87.03125 8.6875 86.902344 8.625 86.78125 L 9.195312 86.503906 C 9.269531 86.46875 9.371094 86.523438 9.421875 86.628906 C 9.472656 86.734375 9.457031 86.847656 9.382812 86.886719 " fill-opacity="1" fill-rule="nonzero"/><path fill="#040606" d="M 9.910156 87.96875 L 9.355469 88.238281 C 9.292969 88.109375 9.230469 87.980469 9.167969 87.855469 L 9.722656 87.589844 C 9.796875 87.550781 9.898438 87.609375 9.949219 87.714844 C 10 87.820312 9.984375 87.933594 9.910156 87.96875 " fill-opacity="1" fill-rule="nonzero"/><path fill="#040606" d="M 10.4375 89.054688 L 9.890625 89.320312 C 9.828125 89.191406 9.765625 89.066406 9.703125 88.9375 L 10.25 88.671875 C 10.324219 88.636719 10.425781 88.691406 10.476562 88.800781 C 10.527344 88.90625 10.507812 89.019531 10.4375 89.054688 " fill-opacity="1" fill-rule="nonzero"/><path fill="#040606" d="M 10.964844 90.140625 L 10.417969 90.40625 C 10.351562 90.277344 10.292969 90.148438 10.230469 90.023438 L 10.777344 89.757812 C 10.851562 89.722656 10.949219 89.777344 11.003906 89.882812 C 11.054688 89.988281 11.035156 90.105469 10.964844 90.140625 " fill-opacity="1" fill-rule="nonzero"/><path fill="#040606" d="M 11.492188 91.222656 L 10.941406 91.492188 C 10.878906 91.363281 10.816406 91.234375 10.757812 91.105469 L 11.304688 90.84375 C 11.378906 90.804688 11.476562 90.863281 11.527344 90.96875 C 11.582031 91.074219 11.5625 91.191406 11.492188 91.222656 " fill-opacity="1" fill-rule="nonzero"/><path fill="#040606" d="M 12.019531 92.308594 L 11.460938 92.578125 C 11.402344 92.449219 11.339844 92.320312 11.277344 92.195312 L 11.832031 91.925781 C 11.902344 91.890625 12.003906 91.949219 12.054688 92.050781 C 12.105469 92.160156 12.089844 92.273438 12.019531 92.308594 " fill-opacity="1" fill-rule="nonzero"/><path fill="#040606" d="M 12.542969 93.394531 L 11.980469 93.664062 C 11.917969 93.539062 11.859375 93.410156 11.796875 93.28125 L 12.359375 93.011719 C 12.429688 92.976562 12.53125 93.03125 12.582031 93.136719 C 12.632812 93.246094 12.617188 93.359375 12.542969 93.394531 " fill-opacity="1" fill-rule="nonzero"/><path fill="#040606" d="M 13.070312 94.476562 L 12.496094 94.757812 C 12.4375 94.628906 12.375 94.5 12.3125 94.371094 L 12.886719 94.09375 C 12.957031 94.058594 13.058594 94.117188 13.109375 94.222656 C 13.160156 94.328125 13.144531 94.441406 13.070312 94.476562 " fill-opacity="1" fill-rule="nonzero"/><path fill="#040606" d="M 13.597656 95.5625 L 13.011719 95.847656 C 12.953125 95.71875 12.890625 95.589844 12.828125 95.460938 L 13.410156 95.179688 C 13.484375 95.144531 13.585938 95.203125 13.636719 95.308594 C 13.6875 95.414062 13.671875 95.527344 13.597656 95.5625 " fill-opacity="1" fill-rule="nonzero"/><path fill="#040606" d="M 14.125 96.648438 L 13.527344 96.9375 C 13.464844 96.808594 13.40625 96.683594 13.34375 96.550781 L 13.9375 96.265625 C 14.011719 96.230469 14.113281 96.285156 14.164062 96.390625 C 14.214844 96.496094 14.195312 96.613281 14.125 96.648438 " fill-opacity="1" fill-rule="nonzero"/><path fill="#040606" d="M 14.648438 97.730469 L 14.039062 98.027344 C 13.980469 97.902344 13.917969 97.773438 13.859375 97.640625 L 14.464844 97.347656 C 14.539062 97.316406 14.640625 97.371094 14.691406 97.476562 C 14.742188 97.582031 14.722656 97.695312 14.648438 97.730469 " fill-opacity="1" fill-rule="nonzero"/><path fill="#040606" d="M 15.175781 98.816406 L 14.554688 99.117188 C 14.496094 98.996094 14.433594 98.863281 14.371094 98.734375 L 14.992188 98.433594 C 15.066406 98.398438 15.167969 98.457031 15.21875 98.5625 C 15.269531 98.667969 15.25 98.78125 15.175781 98.816406 " fill-opacity="1" fill-rule="nonzero"/><path fill="#040606" d="M 15.703125 99.902344 L 15.070312 100.207031 C 15.011719 100.085938 14.949219 99.957031 14.886719 99.824219 L 15.519531 99.519531 C 15.589844 99.484375 15.691406 99.539062 15.742188 99.644531 C 15.796875 99.75 15.777344 99.867188 15.703125 99.902344 " fill-opacity="1" fill-rule="nonzero"/><path fill="#040606" d="M 16.230469 100.988281 L 15.589844 101.296875 C 15.53125 101.179688 15.46875 101.050781 15.40625 100.914062 L 16.046875 100.601562 C 16.117188 100.566406 16.21875 100.625 16.269531 100.730469 C 16.324219 100.835938 16.304688 100.953125 16.230469 100.988281 " fill-opacity="1" fill-rule="nonzero"/><path fill="#040606" d="M 15.933594 101.996094 L 16.570312 101.6875 C 16.644531 101.652344 16.746094 101.710938 16.796875 101.816406 C 16.847656 101.921875 16.832031 102.035156 16.757812 102.070312 L 16.113281 102.382812 C 16.09375 102.316406 16.0625 102.253906 16.027344 102.1875 C 16 102.128906 15.96875 102.070312 15.933594 101.996094 " fill-opacity="1" fill-rule="nonzero"/><path fill="#040606" d="M 17.324219 102.898438 C 17.375 103.007812 17.359375 103.121094 17.285156 103.15625 L 15.851562 103.847656 C 16 103.648438 16.105469 103.441406 16.164062 103.226562 L 17.097656 102.773438 C 17.171875 102.738281 17.273438 102.796875 17.324219 102.898438 " fill-opacity="1" fill-rule="nonzero"/><path fill="#040606" d="M 55.648438 79.074219 C 55.617188 79.226562 55.394531 79.308594 54.574219 79.136719 C 53.753906 78.960938 52.675781 78.441406 52.675781 78.441406 C 52.675781 78.441406 53.871094 78.40625 54.691406 78.582031 C 55.511719 78.757812 55.679688 78.921875 55.648438 79.074219 Z M 54.554688 76.648438 C 55.363281 76.429688 55.589844 76.503906 55.628906 76.652344 C 55.671875 76.804688 55.511719 76.976562 54.699219 77.191406 C 53.890625 77.410156 52.695312 77.4375 52.695312 77.4375 C 52.695312 77.4375 53.742188 76.863281 54.554688 76.648438 Z M 46.136719 79.136719 C 45.316406 79.308594 45.097656 79.226562 45.0625 79.074219 C 45.03125 78.921875 45.199219 78.757812 46.019531 78.582031 C 46.839844 78.40625 48.035156 78.441406 48.035156 78.441406 C 48.035156 78.441406 46.957031 78.960938 46.136719 79.136719 Z M 45.082031 76.652344 C 45.121094 76.503906 45.347656 76.429688 46.15625 76.648438 C 46.964844 76.863281 48.015625 77.4375 48.015625 77.4375 C 48.015625 77.4375 46.820312 77.410156 46.011719 77.191406 C 45.199219 76.976562 45.039062 76.804688 45.082031 76.652344 Z M 58.324219 73.929688 L 52.246094 76.464844 C 52.1875 75.847656 51.667969 75.367188 51.035156 75.367188 L 49.535156 75.367188 C 48.925781 75.367188 48.417969 75.820312 48.332031 76.410156 L 42.390625 73.929688 C 41.925781 73.734375 41.414062 74.074219 41.414062 74.578125 L 41.414062 81.335938 C 41.414062 81.839844 41.933594 82.183594 42.402344 81.980469 L 48.359375 79.40625 C 48.488281 79.9375 48.964844 80.328125 49.535156 80.328125 L 51.035156 80.328125 C 51.625 80.328125 52.117188 79.910156 52.226562 79.351562 L 58.316406 81.980469 C 58.78125 82.183594 59.300781 81.839844 59.300781 81.335938 L 59.300781 74.578125 C 59.300781 74.074219 58.789062 73.734375 58.324219 73.929688 " fill-opacity="1" fill-rule="nonzero"/></g></g></g><g transform="matrix(1, 0, 0, 1, 113, 189)"><g clip-path="url(#d523895d90)"><g clip-path="url(#47b021d220)"><g fill="#5e17eb" fill-opacity="1"><g transform="translate(0.307983, 38.101288)"><g><path d="M 3.109375 0 C 2.867188 0 2.660156 -0.0859375 2.484375 -0.265625 C 2.304688 -0.441406 2.21875 -0.648438 2.21875 -0.890625 L 2.21875 -36.890625 C 2.21875 -37.128906 2.304688 -37.335938 2.484375 -37.515625 C 2.660156 -37.691406 2.867188 -37.78125 3.109375 -37.78125 L 6.21875 -37.78125 C 6.457031 -37.78125 6.664062 -37.691406 6.84375 -37.515625 C 7.019531 -37.335938 7.109375 -37.128906 7.109375 -36.890625 L 7.109375 -5.78125 C 7.109375 -5.539062 7.195312 -5.332031 7.375 -5.15625 C 7.550781 -4.976562 7.757812 -4.890625 8 -4.890625 L 22.3125 -4.890625 C 22.550781 -4.890625 22.757812 -4.800781 22.9375 -4.625 C 23.113281 -4.445312 23.203125 -4.238281 23.203125 -4 L 23.203125 -0.890625 C 23.203125 -0.648438 23.113281 -0.441406 22.9375 -0.265625 C 22.757812 -0.0859375 22.550781 0 22.3125 0 Z M 3.109375 0 "/></g></g></g></g><g clip-path="url(#509391d8c6)"><g fill="#5e17eb" fill-opacity="1"><g transform="translate(24.176191, 38.101288)"><g><path d="M 12.40625 0 C 10.332031 0 8.445312 -0.453125 6.75 -1.359375 C 5.0625 -2.265625 3.707031 -3.515625 2.6875 -5.109375 C 1.664062 -6.710938 1.082031 -8.535156 0.9375 -10.578125 L 0.9375 -10.671875 C 0.9375 -10.910156 1.023438 -11.109375 1.203125 -11.265625 C 1.378906 -11.429688 1.585938 -11.515625 1.828125 -11.515625 L 4.9375 -11.515625 C 5.46875 -11.515625 5.765625 -11.234375 5.828125 -10.671875 C 6.003906 -8.953125 6.691406 -7.554688 7.890625 -6.484375 C 9.085938 -5.421875 10.59375 -4.890625 12.40625 -4.890625 L 13.828125 -4.890625 C 15.753906 -4.890625 17.335938 -5.507812 18.578125 -6.75 C 19.828125 -8 20.453125 -9.585938 20.453125 -11.515625 L 20.453125 -32 C 20.453125 -32.238281 20.363281 -32.445312 20.1875 -32.625 C 20.007812 -32.800781 19.800781 -32.890625 19.5625 -32.890625 L 6.671875 -32.890625 C 6.429688 -32.890625 6.222656 -32.976562 6.046875 -33.15625 C 5.867188 -33.332031 5.78125 -33.539062 5.78125 -33.78125 L 5.78125 -36.890625 C 5.78125 -37.128906 5.867188 -37.335938 6.046875 -37.515625 C 6.222656 -37.691406 6.429688 -37.78125 6.671875 -37.78125 L 24.453125 -37.78125 C 24.691406 -37.78125 24.898438 -37.691406 25.078125 -37.515625 C 25.253906 -37.335938 25.34375 -37.128906 25.34375 -36.890625 L 25.34375 -11.515625 C 25.34375 -9.316406 24.835938 -7.347656 23.828125 -5.609375 C 22.816406 -3.878906 21.441406 -2.507812 19.703125 -1.5 C 17.972656 -0.5 16.015625 0 13.828125 0 Z M 12.40625 0 "/></g></g></g></g></g></g><g transform="matrix(1, 0, 0, 1, 175, 179)"><g clip-path="url(#b6fcc84616)"><g fill="#ffffff" fill-opacity="1"><g transform="translate(0.428919, 46.029955)"><g><path d="M 14.359375 0 L 2.171875 0 L 2.171875 -36.046875 L 14.453125 -36.046875 C 17.910156 -36.046875 20.453125 -35.316406 22.078125 -33.859375 C 23.710938 -32.410156 24.53125 -30.253906 24.53125 -27.390625 L 24.53125 -26.8125 C 24.53125 -22.6875 22.785156 -20.117188 19.296875 -19.109375 C 21.335938 -18.703125 22.890625 -17.789062 23.953125 -16.375 C 25.023438 -14.96875 25.5625 -13.15625 25.5625 -10.9375 L 25.5625 -9.828125 C 25.5625 -7.546875 25.070312 -5.675781 24.09375 -4.21875 C 23.113281 -2.769531 21.785156 -1.703125 20.109375 -1.015625 C 18.441406 -0.335938 16.523438 0 14.359375 0 Z M 9.46875 -29.25 L 9.46875 -21.375 L 13.609375 -21.375 C 16.097656 -21.375 17.34375 -22.488281 17.34375 -24.71875 L 17.34375 -25.875 C 17.34375 -28.125 16.125 -29.25 13.6875 -29.25 Z M 9.46875 -15.78125 L 9.46875 -6.796875 L 14.40625 -6.796875 C 15.707031 -6.796875 16.660156 -7.117188 17.265625 -7.765625 C 17.878906 -8.421875 18.1875 -9.34375 18.1875 -10.53125 L 18.1875 -12.1875 C 18.1875 -14.582031 16.894531 -15.78125 14.3125 -15.78125 Z M 9.46875 -15.78125 "/></g></g></g><g fill="#ffffff" fill-opacity="1"><g transform="translate(26.652768, 46.029955)"><g><path d="M 29.109375 0 L 21.78125 0 L 19.734375 -8.453125 L 9.90625 -8.453125 L 7.875 0 L 0.578125 0 L 10 -36.046875 L 19.609375 -36.046875 Z M 11.421875 -14.984375 L 18.1875 -14.984375 L 14.796875 -29.296875 Z M 11.421875 -14.984375 "/></g></g></g><g fill="#ffffff" fill-opacity="1"><g transform="translate(56.343578, 46.029955)"><g><path d="M 20.890625 -15.109375 L 27.421875 0 L 19.734375 0 L 13.90625 -13.828125 L 9.46875 -13.828125 L 9.46875 0 L 2.171875 0 L 2.171875 -36.046875 L 14.3125 -36.046875 C 17.21875 -36.046875 19.5 -35.59375 21.15625 -34.6875 C 22.820312 -33.789062 24 -32.570312 24.6875 -31.03125 C 25.382812 -29.488281 25.734375 -27.722656 25.734375 -25.734375 L 25.734375 -24.234375 C 25.734375 -22.179688 25.363281 -20.363281 24.625 -18.78125 C 23.882812 -17.195312 22.640625 -15.972656 20.890625 -15.109375 Z M 14.046875 -29.25 L 9.46875 -29.25 L 9.46875 -19.15625 L 14.046875 -19.15625 C 15.523438 -19.15625 16.613281 -19.46875 17.3125 -20.09375 C 18.007812 -20.71875 18.359375 -21.753906 18.359375 -23.203125 L 18.359375 -25.296875 C 18.359375 -26.773438 17.988281 -27.800781 17.25 -28.375 C 16.507812 -28.957031 15.441406 -29.25 14.046875 -29.25 Z M 14.046875 -29.25 "/></g></g></g><g fill="#ffffff" fill-opacity="1"><g transform="translate(84.123149, 46.029955)"><g><path d="M 14.359375 0 L 2.171875 0 L 2.171875 -36.046875 L 14.453125 -36.046875 C 17.910156 -36.046875 20.453125 -35.316406 22.078125 -33.859375 C 23.710938 -32.410156 24.53125 -30.253906 24.53125 -27.390625 L 24.53125 -26.8125 C 24.53125 -22.6875 22.785156 -20.117188 19.296875 -19.109375 C 21.335938 -18.703125 22.890625 -17.789062 23.953125 -16.375 C 25.023438 -14.96875 25.5625 -13.15625 25.5625 -10.9375 L 25.5625 -9.828125 C 25.5625 -7.546875 25.070312 -5.675781 24.09375 -4.21875 C 23.113281 -2.769531 21.785156 -1.703125 20.109375 -1.015625 C 18.441406 -0.335938 16.523438 0 14.359375 0 Z M 9.46875 -29.25 L 9.46875 -21.375 L 13.609375 -21.375 C 16.097656 -21.375 17.34375 -22.488281 17.34375 -24.71875 L 17.34375 -25.875 C 17.34375 -28.125 16.125 -29.25 13.6875 -29.25 Z M 9.46875 -15.78125 L 9.46875 -6.796875 L 14.40625 -6.796875 C 15.707031 -6.796875 16.660156 -7.117188 17.265625 -7.765625 C 17.878906 -8.421875 18.1875 -9.34375 18.1875 -10.53125 L 18.1875 -12.1875 C 18.1875 -14.582031 16.894531 -15.78125 14.3125 -15.78125 Z M 9.46875 -15.78125 "/></g></g></g><g fill="#ffffff" fill-opacity="1"><g transform="translate(111.147115, 46.029955)"><g><path d="M 22.046875 0 L 2.171875 0 L 2.171875 -36.046875 L 21.953125 -36.046875 L 21.953125 -29.25 L 9.46875 -29.25 L 9.46875 -21.6875 L 20.453125 -21.6875 L 20.453125 -15.15625 L 9.46875 -15.15625 L 9.46875 -6.796875 L 22.046875 -6.796875 Z M 22.046875 0 "/></g></g></g><g clip-path="url(#f03a43a4a4)"><g fill="#ffffff" fill-opacity="1"><g transform="translate(134.704193, 46.029955)"><g><path d="M 20.890625 -15.109375 L 27.421875 0 L 19.734375 0 L 13.90625 -13.828125 L 9.46875 -13.828125 L 9.46875 0 L 2.171875 0 L 2.171875 -36.046875 L 14.3125 -36.046875 C 17.21875 -36.046875 19.5 -35.59375 21.15625 -34.6875 C 22.820312 -33.789062 24 -32.570312 24.6875 -31.03125 C 25.382812 -29.488281 25.734375 -27.722656 25.734375 -25.734375 L 25.734375 -24.234375 C 25.734375 -22.179688 25.363281 -20.363281 24.625 -18.78125 C 23.882812 -17.195312 22.640625 -15.972656 20.890625 -15.109375 Z M 14.046875 -29.25 L 9.46875 -29.25 L 9.46875 -19.15625 L 14.046875 -19.15625 C 15.523438 -19.15625 16.613281 -19.46875 17.3125 -20.09375 C 18.007812 -20.71875 18.359375 -21.753906 18.359375 -23.203125 L 18.359375 -25.296875 C 18.359375 -26.773438 17.988281 -27.800781 17.25 -28.375 C 16.507812 -28.957031 15.441406 -29.25 14.046875 -29.25 Z M 14.046875 -29.25 "/></g></g></g></g></g></g></svg>